<svg width="361" height="328" viewBox="0 0 361 328" fill="none" xmlns="http://www.w3.org/2000/svg">
<path d="M125.153 300.341L44.2425 179.317C25.1727 150.791 32.9132 111.848 61.4394 92.7787L182.464 11.8682C210.99 -7.20155 249.932 0.538918 269.002 29.0652L349.912 150.09C368.982 178.616 361.242 217.558 332.716 236.628L211.691 317.538C183.165 336.608 144.223 328.868 125.153 300.341Z" fill="url(#paint0_linear_134_103)"/>
<path d="M134.314 311.173L25.2929 224.727C-2.6798 202.538 -7.42187 161.502 14.7662 133.529L101.212 24.5077C123.391 -3.46495 164.428 -8.20703 192.4 13.9811L301.422 100.427C329.395 122.606 334.137 163.642 311.948 191.615L225.503 300.637C203.324 328.609 162.287 333.351 134.314 311.173Z" fill="url(#paint1_linear_134_103)"/>
<path d="M126.14 301.79L33.6791 214.421C7.73613 189.899 6.56445 148.614 31.0867 122.661L118.455 30.2094C142.977 4.2664 184.263 3.09472 210.215 27.617L302.667 114.986C328.61 139.508 329.782 180.793 305.26 206.746L217.891 299.198C193.378 325.141 152.083 326.312 126.14 301.79Z" stroke="white" stroke-width="2" stroke-miterlimit="10"/>
<defs>
<linearGradient id="paint0_linear_134_103" x1="35.6573" y1="175.316" x2="358.505" y2="154.091" gradientUnits="userSpaceOnUse">
<stop stop-color="#5F5F5F"/>
<stop offset="1" stop-color="#B9C0C1"/>
</linearGradient>
<linearGradient id="paint1_linear_134_103" x1="0.785236" y1="162.573" x2="325.93" y2="162.573" gradientUnits="userSpaceOnUse">
<stop stop-color="#B4874C"/>
<stop offset="1" stop-color="#EAB878"/>
</linearGradient>
</defs>
</svg>
