<svg width="129" height="130" viewBox="0 0 129 130" fill="none" xmlns="http://www.w3.org/2000/svg">
<g opacity="0.35">
<path d="M59.5416 87.303C56.9734 89.026 54.3401 89.362 51.7719 87.3789C49.2253 85.4175 48.9869 82.7301 49.973 79.4358C46.6354 80.1618 43.6338 80.1402 41.6616 77.171C39.9711 74.6245 40.3828 72.1321 42.0516 69.7264C42.2575 69.5205 42.4634 69.3255 42.6693 69.1196C43.8613 68.2635 45.2484 67.4291 46.6354 67.7109C49.1712 68.2202 48.7052 67.0498 48.846 65.2618C49.0303 62.7912 48.7702 61.7834 46.0069 62.1843C44.9991 62.3252 43.8396 61.4366 42.756 61.014C42.4634 60.7214 42.1708 60.4288 41.8783 60.1471C40.4153 57.6872 39.9602 55.184 41.7374 52.7025C43.7096 49.95 46.4946 49.7116 49.9189 50.6219C49.052 47.2518 49.182 44.2935 52.1403 42.3321C54.676 40.6633 57.1684 41.075 59.5524 42.733C59.7583 42.9389 59.9533 43.1448 60.1592 43.3507C60.6469 44.5535 61.698 45.8431 61.5138 46.9267C61.0261 49.8525 62.4132 49.3215 64.4396 49.4841C66.8778 49.6791 67.0837 49.0181 67.0187 46.9375C66.9753 45.7564 67.9072 44.5535 68.3949 43.3507C68.6116 43.134 68.8283 42.9064 69.0451 42.6897C71.6025 40.8908 74.2357 40.5874 76.8039 42.538C79.3613 44.4885 79.6647 47.1543 78.6786 50.4268C81.9295 49.8634 84.9637 49.7225 86.9576 52.7241C88.6481 55.2707 88.258 57.7631 86.6542 60.1904C86.4049 60.4397 86.1557 60.6781 85.9173 60.9273C84.7036 61.4041 83.4358 62.3794 82.2871 62.2493C79.8056 61.9676 79.8381 62.8453 79.8706 64.9476C79.9031 66.9848 79.7839 67.9601 82.298 67.6784C83.4466 67.5483 84.7145 68.5344 85.9173 69.0112C86.1665 69.2605 86.4158 69.5097 86.6758 69.7589C88.388 72.3163 88.7239 74.9496 86.7626 77.4961C84.812 80.021 82.1896 80.4219 78.8845 79.3383C79.5563 82.7409 79.448 85.8401 76.3055 87.7907C73.8889 89.2861 71.5049 88.8743 69.2076 87.4114C68.8934 87.0971 68.5899 86.7829 68.2757 86.4795C67.062 84.6806 66.7478 82.6759 67.0837 80.5845C63.6269 80.1944 60.7552 80.2919 61.1128 84.8757C61.1562 85.4284 60.5493 86.0243 60.2351 86.5987C59.9967 86.8479 59.7691 87.0755 59.5416 87.303ZM76.0996 76.7592C74.1165 75.5564 78.2777 71.7745 73.8564 71.7528C71.6025 71.742 71.0715 72.5114 71.0931 74.6028C71.1256 78.9915 74.8534 74.8412 76.0996 76.7592ZM52.6388 76.8134C53.8633 75.1555 58.2737 79.0891 57.5043 73.6925C56.8867 69.4013 54.1667 72.7823 52.6605 71.677C53.2781 73.465 52.6279 74.9604 52.6388 76.8134ZM76.2513 53.2876C71.0173 53.8295 71.1473 53.8511 70.9956 55.0648C70.4863 59.2802 73.6722 57.8498 76.1429 58.5108C75.406 56.5494 75.9803 54.9456 76.2513 53.2876ZM52.5955 53.0601C52.888 54.9673 53.0722 56.6036 52.7797 58.4458C54.2209 57.1562 57.1142 60.3421 57.6019 56.0943C58.1979 50.8386 53.7658 55.0106 52.5955 53.0601ZM62.3048 64.6659C62.3915 65.782 61.5463 67.3858 63.8328 66.9307C64.9923 66.7031 66.4877 67.5266 66.2926 65.121C66.1626 63.4847 66.0759 62.8453 64.2012 62.9645C62.7925 63.0512 61.7847 62.9104 62.3048 64.6659Z" fill="#B4874C"/>
<path d="M60.1808 43.3507C59.9749 43.1448 59.7798 42.9389 59.574 42.733C59.5414 42.4729 59.574 42.1804 59.4764 41.9528C58.1436 39.0161 58.1002 36.242 60.831 34.0964C63.0524 32.3518 65.5556 32.3409 67.7879 34.0747C70.5295 36.1987 70.497 38.9836 69.1966 41.9203C69.0991 42.1478 69.1208 42.4404 69.0883 42.7005C68.8716 42.9172 68.6548 43.1448 68.4381 43.3615C65.6748 44.4777 62.9224 44.456 60.1808 43.3507Z" fill="#B4874C"/>
<path d="M86.6757 69.7698C86.4265 69.5206 86.1772 69.2713 85.9172 69.0221C84.7577 66.3238 84.7794 63.6364 85.9172 60.9382C86.1664 60.6889 86.4156 60.4505 86.654 60.2013C87.5318 59.9303 88.3879 59.5944 89.2873 59.421C91.8338 58.9334 94.0228 59.5511 95.4857 61.8159C96.8186 63.8856 96.8186 66.0637 95.4965 68.1335C94.0445 70.3983 91.8447 71.0268 89.2981 70.5392C88.4095 70.3875 87.5534 70.0407 86.6757 69.7698Z" fill="#B4874C"/>
<path d="M68.2647 86.4904C68.5789 86.8046 68.8823 87.1189 69.1966 87.4223C69.3699 88.0508 69.5433 88.6902 69.7059 89.3187C70.4211 92.0061 69.9877 94.4009 67.6036 96.0589C65.4147 97.576 63.0524 97.5435 60.8959 95.9722C58.5553 94.26 58.176 91.8544 58.9671 89.1886C59.1513 88.5601 59.3572 87.9316 59.5414 87.3031C59.7689 87.0755 59.9965 86.8371 60.224 86.6096C62.8898 85.4826 65.5772 85.5151 68.2647 86.4904Z" fill="#B4874C"/>
<path d="M42.6795 69.1196C42.4737 69.3255 42.2678 69.5206 42.0619 69.7264C38.8435 70.7559 35.6142 71.677 33.2194 68.2094C31.8215 66.1938 31.789 63.994 33.1219 61.9134C35.4083 58.3699 38.6484 59.1502 41.8993 60.1254C42.1919 60.418 42.4845 60.7106 42.7771 60.9923C43.8282 63.7231 43.7307 66.4322 42.6795 69.1196Z" fill="#B4874C"/>
<path d="M96.2228 82.4809C96.2878 85.4609 93.6004 88.1484 90.6204 88.0942C87.7921 88.04 85.2673 85.5259 85.2131 82.6868C85.1481 79.696 87.8246 77.0194 90.8155 77.0736C93.6329 77.1386 96.1578 79.6526 96.2228 82.4809Z" fill="#B4874C"/>
<path d="M37.9547 88.0507C35.0072 88.0832 32.3523 85.3849 32.4499 82.4483C32.5366 79.6417 35.0506 77.171 37.8572 77.1385C40.8047 77.106 43.4596 79.8042 43.3621 82.7409C43.2862 85.5475 40.7614 88.0182 37.9547 88.0507Z" fill="#B4874C"/>
<path d="M52.1826 91.1933C52.3018 94.1408 49.6686 96.8607 46.6994 96.8607C43.8928 96.8607 41.3462 94.39 41.227 91.5834C41.1078 88.6359 43.7411 85.916 46.7102 85.916C49.5277 85.916 52.0743 88.3758 52.1826 91.1933Z" fill="#B4874C"/>
<path d="M90.4031 52.8759C87.4123 52.6917 84.9416 49.82 85.245 46.8834C85.5376 44.0443 88.225 41.7253 91.0099 41.8987C94.0008 42.0829 96.4715 44.9654 96.1681 47.8912C95.8863 50.7303 93.1989 53.0493 90.4031 52.8759Z" fill="#B4874C"/>
<path d="M37.7167 41.9311C40.4908 41.8228 43.1241 44.1851 43.3516 47.0026C43.59 49.9175 41.0651 52.735 38.096 52.8542C35.1593 52.9734 32.4394 50.351 32.4502 47.3927C32.4611 44.586 34.9101 42.0395 37.7167 41.9311Z" fill="#B4874C"/>
<path d="M87.4021 38.6152C87.3913 41.5952 84.6497 44.2176 81.6913 44.0767C78.863 43.9467 76.414 41.3893 76.4248 38.561C76.4357 35.581 79.1773 32.9586 82.1356 33.0995C84.9639 33.2295 87.4129 35.7978 87.4021 38.6152Z" fill="#B4874C"/>
<path d="M46.7331 33.132C49.6914 33.1428 52.303 35.8736 52.1621 38.8102C52.0321 41.6277 49.4747 44.0659 46.6789 44.0442C43.7206 44.0334 41.109 41.3026 41.239 38.3659C41.3799 35.5593 43.9373 33.1103 46.7331 33.132Z" fill="#B4874C"/>
<path d="M87.4016 91.3233C87.4449 94.3033 84.7467 96.9583 81.7775 96.8824C78.9492 96.8065 76.4569 94.2817 76.4243 91.4534C76.381 88.4734 79.0684 85.8185 82.0484 85.9051C84.8767 85.981 87.3583 88.495 87.4016 91.3233Z" fill="#B4874C"/>
<path d="M50.4282 99.8733C50.8725 96.7741 52.628 95.1161 55.7489 95.1486C58.7289 95.1811 60.907 97.7168 60.5277 100.708C60.1268 103.839 58.1762 105.411 55.0879 105.194C51.9345 104.966 50.5149 102.929 50.4282 99.8733Z" fill="#B4874C"/>
<path d="M99.5054 78.9048C96.4062 78.6339 94.5965 77.0193 94.4448 73.8768C94.3039 70.8859 96.7313 68.5019 99.7221 68.7186C102.843 68.9462 104.62 70.7776 104.555 73.8984C104.501 77.041 102.594 78.6448 99.5054 78.9048Z" fill="#B4874C"/>
<path d="M34.1624 73.7359C33.924 76.8351 32.3527 78.7423 29.1668 78.764C26.0134 78.7857 24.1712 77.0085 24.1279 73.8443C24.0954 70.6909 25.8834 68.8595 29.0368 68.8054C32.2226 68.762 33.859 70.6259 34.1624 73.7359Z" fill="#B4874C"/>
<path d="M78.2341 100.133C78.0066 103.2 76.4353 105.14 73.2927 105.237C70.1827 105.324 68.3188 103.59 68.0479 100.458C67.7878 97.4676 70.1502 95.0077 73.141 95.1161C76.2836 95.2353 77.9199 97.0233 78.2341 100.133Z" fill="#B4874C"/>
<path d="M99.4303 61.3066C96.3203 60.9815 94.5431 59.3235 94.4456 56.181C94.3589 53.1901 96.8296 50.8387 99.8204 51.1204C102.941 51.413 104.675 53.2768 104.567 56.3869C104.448 59.5403 102.497 61.0899 99.4303 61.3066Z" fill="#B4874C"/>
<path d="M29.3185 51.1421C32.4177 51.5214 34.2057 53.2335 34.0865 56.3869C33.9673 59.5511 32.0493 61.2741 28.9176 61.1657C25.7533 61.0574 24.0412 59.1393 24.1387 55.9968C24.2362 52.8109 26.2085 51.3046 29.3185 51.1421Z" fill="#B4874C"/>
<path d="M60.603 29.6752C60.2671 32.9803 58.62 34.8441 55.4449 34.79C52.2807 34.7358 50.4818 32.8828 50.5252 29.7185C50.5685 26.5543 52.4324 24.7663 55.5857 24.788C58.7933 24.8096 60.3104 26.7819 60.603 29.6752Z" fill="#B4874C"/>
<path d="M78.2012 29.8486C77.9086 32.9369 76.2831 34.7249 73.1406 34.8333C70.1389 34.9417 67.8199 32.5251 68.0691 29.5235C68.3184 26.4026 70.1606 24.6796 73.2706 24.7663C76.4131 24.853 77.9736 26.771 78.2012 29.8486Z" fill="#B4874C"/>
<path d="M38.0418 104.825C35.2786 104.511 33.4364 103.059 33.3714 100.285C33.3172 97.5218 35.051 95.7229 37.8035 95.6579C40.5667 95.5929 42.3656 97.3375 42.4306 100.09C42.5173 102.864 40.7076 104.37 38.0418 104.825Z" fill="#B4874C"/>
<path d="M64.3848 113.646C61.6649 113.321 59.8118 111.869 59.7468 109.084C59.6926 106.31 61.4481 104.5 64.2006 104.424C66.9747 104.359 68.7843 106.115 68.8602 108.878C68.9469 111.685 67.1372 113.202 64.3848 113.646Z" fill="#B4874C"/>
<path d="M108.641 60.3529C111.1 60.7539 112.78 62.2276 112.932 64.9909C113.062 67.4941 110.472 69.9323 108.023 69.5964C105.325 69.2279 103.743 67.5483 103.71 64.785C103.667 62.4227 106.072 60.2879 108.641 60.3529Z" fill="#B4874C"/>
<path d="M24.9298 64.9476C24.4855 67.7976 22.9684 69.5748 20.2051 69.4989C17.4635 69.4231 15.7297 67.635 15.7947 64.8826C15.8598 62.141 17.6586 60.418 20.411 60.4722C23.1852 60.5264 24.5722 62.4119 24.9298 64.9476Z" fill="#B4874C"/>
<path d="M64.2441 16.3573C66.9532 16.6716 68.7954 18.1236 68.8387 20.8977C68.8929 23.661 67.1483 25.4599 64.3958 25.514C61.6325 25.5682 59.8446 23.8236 59.7795 21.0711C59.7145 18.297 61.5134 16.7908 64.2441 16.3573Z" fill="#B4874C"/>
<path d="M42.517 29.7185C42.2136 32.4168 40.7724 34.2373 38.0091 34.3023C35.2566 34.3565 33.4686 32.6335 33.4036 29.8919C33.3386 27.1395 35.0724 25.3515 37.814 25.2865C40.5773 25.2106 42.0836 26.9878 42.517 29.7185Z" fill="#B4874C"/>
<path d="M95.367 100.274C94.9118 103.016 93.3947 104.825 90.6098 104.75C87.8465 104.674 86.091 102.864 86.156 100.09C86.2319 97.3267 88.0416 95.5712 90.8157 95.6362C93.6006 95.6904 95.0527 97.5542 95.367 100.274Z" fill="#B4874C"/>
<path d="M90.6425 25.1348C93.3624 25.4599 95.2154 26.9119 95.2804 29.6969C95.3346 32.471 93.5791 34.2807 90.8159 34.3457C88.0417 34.4107 86.2321 32.6444 86.167 29.8811C86.0804 27.0962 87.89 25.5791 90.6425 25.1348Z" fill="#B4874C"/>
<path d="M29.0695 86.7721C31.9194 87.2055 33.6966 88.7226 33.6207 91.4859C33.5557 94.2275 31.7677 95.9613 29.0153 95.9072C26.2737 95.8421 24.5507 94.0541 24.5941 91.3017C24.6482 88.5167 26.5229 87.1297 29.0695 86.7721Z" fill="#B4874C"/>
<path d="M99.5815 43.2423C96.8615 42.9172 95.0085 41.4543 94.9543 38.6693C94.9002 35.8952 96.6557 34.0856 99.4298 34.0205C102.204 33.9555 104.003 35.7218 104.079 38.4851C104.144 41.2917 102.323 42.8088 99.5815 43.2423Z" fill="#B4874C"/>
<path d="M33.7178 38.4526C33.4035 41.2159 31.9623 43.0473 29.199 43.1014C26.4466 43.1556 24.6586 41.4218 24.5936 38.6802C24.5285 35.9278 26.2623 34.1506 29.0039 34.0747C31.7889 33.9989 33.2735 35.8086 33.7178 38.4526Z" fill="#B4874C"/>
<path d="M104.187 91.4859C103.742 94.1842 102.258 95.8638 99.4946 95.9938C96.9914 96.1238 94.564 93.5231 94.8999 91.0633C95.2792 88.365 96.9697 86.6529 99.7221 86.7937C102.464 86.9454 103.894 88.7876 104.187 91.4859Z" fill="#B4874C"/>
<path d="M108.446 43.1556C111.144 43.4374 112.618 44.922 112.488 47.6202C112.347 50.351 110.646 51.7164 107.98 51.5538C105.477 51.4021 104.1 49.8525 104.133 47.3385C104.165 44.6185 105.78 43.2965 108.446 43.1556Z" fill="#B4874C"/>
<path d="M108.424 86.8587C105.607 86.5987 104.068 85.2008 104.111 82.5242C104.155 79.8476 105.704 78.3522 108.37 78.3847C111.047 78.4172 112.52 79.9776 112.52 82.6434C112.509 85.3742 110.851 86.6312 108.424 86.8587Z" fill="#B4874C"/>
<path d="M20.1399 86.7829C17.485 86.4795 16.0329 85.0058 16.1846 82.3292C16.3363 79.6201 18.0268 78.2872 20.6709 78.4606C23.1632 78.6232 24.4961 80.1728 24.4419 82.6543C24.3986 85.3742 22.784 86.6529 20.1399 86.7829Z" fill="#B4874C"/>
<path d="M81.9071 16.7799C84.5728 16.9858 86.1224 18.3729 86.0682 21.082C86.0032 23.8019 84.3995 25.2214 81.7229 25.1456C79.2197 25.0697 77.8001 23.596 77.7568 21.0928C77.7134 18.3729 79.2413 16.9858 81.9071 16.7799Z" fill="#B4874C"/>
<path d="M20.5842 51.5863C17.7668 51.4238 16.1738 50.1017 16.1738 47.3926C16.1847 44.6944 17.7126 43.2206 20.4 43.2532C22.8924 43.2748 24.3336 44.6944 24.442 47.1867C24.5612 49.9067 23.0333 51.2721 20.5842 51.5863Z" fill="#B4874C"/>
<path d="M86.1666 108.987C85.8523 111.847 84.3461 113.31 81.6586 113.159C78.9279 113.007 77.5733 111.284 77.7467 108.618C77.9093 106.104 79.4805 104.76 81.9837 104.793C84.747 104.847 85.9715 106.527 86.1666 108.987Z" fill="#B4874C"/>
<path d="M46.8513 113.213C44.0014 112.974 42.4734 111.555 42.5601 108.846C42.6468 106.126 44.2723 104.728 46.9489 104.825C49.4521 104.923 50.8391 106.418 50.8717 108.922C50.915 111.685 49.2895 112.964 46.8513 113.213Z" fill="#B4874C"/>
<path d="M50.9052 21.1578C50.6018 23.8127 49.128 25.2648 46.4515 25.1131C43.7424 24.9614 42.4095 23.2709 42.5829 20.6268C42.7454 18.1345 44.295 16.8016 46.7766 16.8558C49.4965 16.8991 50.7752 18.5137 50.9052 21.1578Z" fill="#B4874C"/>
<path d="M117.083 77.6153C114.677 77.1494 113.192 75.8273 113.398 73.5083C113.593 71.2544 115.154 69.8457 117.495 70.0841C119.586 70.2899 120.919 71.742 120.843 73.8768C120.756 76.2066 119.174 77.3336 117.083 77.6153Z" fill="#B4874C"/>
<path d="M11.5262 77.4745C9.28307 77.2469 7.84183 76.0008 7.89601 73.6709C7.93935 71.547 9.31557 70.1816 11.4503 70.1708C13.7693 70.1599 15.1889 71.5903 15.1455 73.9202C15.0914 76.0332 13.7043 77.2144 11.5262 77.4745Z" fill="#B4874C"/>
<path d="M73.0001 8.46838C75.0482 8.60926 76.5436 9.66039 76.7495 11.806C76.9662 14.1575 75.6117 15.7071 73.3035 15.8371C70.9737 15.9672 69.4891 14.5151 69.4566 12.1853C69.4241 10.0397 70.8003 8.81515 73.0001 8.46838Z" fill="#B4874C"/>
<path d="M120.918 56.0618C120.702 58.3049 119.509 59.8653 117.191 59.9087C114.882 59.952 113.419 58.4674 113.387 56.1593C113.365 54.0354 114.752 52.605 116.844 52.4641C119.163 52.3124 120.474 53.7645 120.918 56.0618Z" fill="#B4874C"/>
<path d="M11.4054 52.5074C13.4318 52.6375 14.9055 53.6669 15.1114 55.8017C15.3282 58.1315 13.9953 59.6703 11.698 59.8003C9.3898 59.9195 7.91607 58.5108 7.88356 56.181C7.86189 54.0462 9.2056 52.8325 11.4054 52.5074Z" fill="#B4874C"/>
<path d="M59.2811 117.71C59.0536 119.931 57.8507 121.47 55.5534 121.481C53.2669 121.492 51.8257 120.029 51.8257 117.732C51.8257 115.619 53.2128 114.221 55.2933 114.101C57.5906 113.971 58.891 115.402 59.2811 117.71Z" fill="#B4874C"/>
<path d="M59.2269 12.1203C59.0643 14.2008 57.959 15.6638 55.8242 15.8263C53.4836 15.9997 51.934 14.6235 51.8581 12.3045C51.7714 9.97466 53.2452 8.51175 55.5858 8.52258C57.7206 8.54425 58.9235 9.94214 59.2269 12.1203Z" fill="#B4874C"/>
<path d="M73.1191 121.557C70.8651 121.264 69.3589 120.018 69.413 117.71C69.4672 115.423 70.9843 114.015 73.2816 114.091C75.3731 114.166 76.7601 115.564 76.8035 117.667C76.8576 119.986 75.3947 121.232 73.1191 121.557Z" fill="#B4874C"/>
<path d="M108.272 103.558C106.094 103.384 104.881 102.214 104.978 99.9816C105.065 97.9552 106.289 96.8282 108.305 96.8499C110.548 96.8715 111.718 98.1719 111.632 100.383C111.567 102.431 110.31 103.428 108.272 103.558Z" fill="#B4874C"/>
<path d="M99.1912 17.6251C101.553 17.7443 102.832 18.8063 102.81 21.0494C102.789 23.065 101.651 24.2462 99.6354 24.2895C97.4248 24.3437 96.2003 23.1408 96.1895 20.9302C96.2003 18.8821 97.4357 17.896 99.1912 17.6251Z" fill="#B4874C"/>
<path d="M99.5603 105.616C101.597 105.79 102.811 106.83 102.844 108.878C102.876 111.1 101.663 112.346 99.4302 112.324C97.4038 112.303 96.2335 111.143 96.1793 109.106C96.136 106.863 97.393 105.746 99.5603 105.616Z" fill="#B4874C"/>
<path d="M108.013 26.4026C110.375 26.5218 111.665 27.5946 111.643 29.8485C111.621 31.8749 110.483 33.067 108.446 33.1103C106.225 33.1645 104.979 31.9508 104.979 29.7185C104.979 27.6704 106.214 26.6627 108.013 26.4026Z" fill="#B4874C"/>
<path d="M32.4175 21.0603C32.2225 23.0542 31.1713 24.257 29.1341 24.2462C26.891 24.2354 25.7206 22.9133 25.8615 20.7244C25.9807 18.7088 27.2702 17.6469 29.2858 17.7336C31.323 17.8202 32.2983 19.0664 32.4175 21.0603Z" fill="#B4874C"/>
<path d="M20.4329 96.8607C22.4376 97.0774 23.6188 98.1502 23.5862 100.209C23.5429 102.474 22.1992 103.623 19.9886 103.46C17.9514 103.319 16.911 101.997 17.0194 99.9708C17.1494 97.9118 18.4173 96.9474 20.4329 96.8607Z" fill="#B4874C"/>
<path d="M93.8496 12.0769C93.6871 13.8974 92.7335 15.1545 90.913 15.252C88.8866 15.3603 87.6187 14.125 87.6404 12.0986C87.6621 10.2781 88.8649 9.12941 90.6963 9.10774C92.5493 9.0969 93.5354 10.2997 93.8496 12.0769Z" fill="#B4874C"/>
<path d="M41.0223 12.1961C40.7622 13.9733 39.7978 15.2195 37.9881 15.2303C35.9942 15.2412 34.748 13.9733 34.8672 11.9794C34.9756 10.2131 36.1893 9.06441 38.0206 9.14026C39.8411 9.21612 40.7839 10.4298 41.0223 12.1961Z" fill="#B4874C"/>
<path d="M29.1019 105.66C31.1175 105.801 32.3637 106.819 32.3962 108.878C32.4287 111.121 31.1609 112.346 28.9286 112.259C26.8805 112.183 25.786 110.926 25.8294 108.9C25.8727 106.841 27.0864 105.822 29.1019 105.66Z" fill="#B4874C"/>
<path d="M117.094 94.5743C115.154 94.3033 113.897 93.2414 114.006 91.2042C114.103 89.3945 115.284 88.2458 117.105 88.2675C119.12 88.3 120.323 89.5462 120.236 91.5726C120.15 93.4039 118.925 94.3575 117.094 94.5743Z" fill="#B4874C"/>
<path d="M11.276 88.2567C13.2157 88.4734 14.4727 89.4162 14.5486 91.215C14.6353 93.2089 13.3891 94.4767 11.3952 94.4334C9.60721 94.4009 8.4694 93.1872 8.45856 91.3775C8.44773 89.5245 9.72643 88.6359 11.276 88.2567Z" fill="#B4874C"/>
<path d="M20.4325 33.1212C18.2327 32.8828 17.0299 31.8425 17.0516 29.8053C17.0732 27.5621 18.3953 26.4027 20.5951 26.5435C22.6106 26.6736 23.6618 27.9631 23.5751 29.9787C23.4884 32.0376 22.1663 32.9261 20.4325 33.1212Z" fill="#B4874C"/>
<path d="M116.92 41.7469C115.045 41.346 113.81 40.2515 114.038 38.2359C114.233 36.4804 115.457 35.3535 117.267 35.4835C119.239 35.6352 120.399 36.9247 120.193 38.9186C120.009 40.7066 118.762 41.6386 116.92 41.7469Z" fill="#B4874C"/>
<path d="M41.0549 117.916C40.7298 119.693 39.7329 120.885 37.8907 120.863C36.0593 120.842 34.8674 119.682 34.8565 117.862C34.8457 115.835 36.1244 114.611 38.1399 114.73C39.9388 114.827 40.8924 116.095 41.0549 117.916Z" fill="#B4874C"/>
<path d="M90.5004 114.589C92.6135 114.892 93.8814 115.922 93.8055 117.937C93.7297 119.725 92.5593 120.885 90.7496 120.874C88.7557 120.863 87.5638 119.628 87.6071 117.623C87.6613 115.814 88.9616 114.947 90.5004 114.589Z" fill="#B4874C"/>
<path d="M14.6031 38.6694C14.2672 40.4682 13.2594 41.6819 11.4064 41.5952C9.58585 41.5194 8.42635 40.3057 8.49137 38.4744C8.56722 36.6538 9.77007 35.4943 11.6123 35.5594C13.4436 35.6352 14.3972 36.8814 14.6031 38.6694Z" fill="#B4874C"/>
<path d="M128.688 64.915C128.504 66.7031 127.582 67.7325 125.892 67.7109C124.201 67.6892 123.172 66.6489 123.194 64.9584C123.215 63.2679 124.256 62.2493 125.946 62.2602C127.647 62.271 128.514 63.3546 128.688 64.915Z" fill="#B4874C"/>
<path d="M84.3244 126.281C84.2594 127.896 83.5658 128.828 82.2005 128.958C80.64 129.11 79.6106 128.286 79.5564 126.682C79.5022 125.089 80.445 124.201 82.0271 124.223C83.4467 124.244 84.086 125.198 84.3244 126.281Z" fill="#B4874C"/>
<path d="M61.6118 126.639C61.8611 124.743 62.858 123.811 64.5485 123.952C66.2715 124.093 67.1167 125.263 66.9433 126.932C66.7916 128.416 65.7947 129.283 64.2559 129.24C62.5221 129.197 61.7527 128.102 61.6118 126.639Z" fill="#B4874C"/>
<path d="M49.1061 126.574C48.9327 128.069 48.1417 129.001 46.5704 128.936C45.2158 128.871 44.3706 128.004 44.3706 126.65C44.3706 125.1 45.3025 124.201 46.8521 124.255C48.2175 124.298 48.9219 125.209 49.1061 126.574Z" fill="#B4874C"/>
<path d="M49.0726 3.40781C48.8884 4.76235 48.1623 5.68345 46.7861 5.69428C45.2148 5.70512 44.2829 4.72984 44.4129 3.16941C44.5213 1.83653 45.4424 0.991302 46.8403 1.07799C48.2057 1.15385 48.91 2.05326 49.0726 3.40781Z" fill="#B4874C"/>
<path d="M66.9528 3.39699C66.736 5.30419 65.6741 6.14943 63.9728 5.98688C62.434 5.83517 61.6104 4.79488 61.708 3.25611C61.8163 1.46811 62.9542 0.644549 64.6555 0.807094C66.2051 0.937131 66.8986 2.00993 66.9528 3.39699Z" fill="#B4874C"/>
<path d="M84.3346 3.29946C84.0529 4.98993 83.1751 5.88936 81.6364 5.72681C80.3252 5.58594 79.4799 4.67569 79.5775 3.3103C79.675 1.7607 80.6611 0.915463 82.1998 1.05634C83.5436 1.17554 84.1612 2.17247 84.3346 3.29946Z" fill="#B4874C"/>
<path d="M5.06748 47.3818C4.90493 48.7364 4.17891 49.6683 2.81353 49.69C1.24225 49.7225 0.310323 48.758 0.407851 47.1868C0.494542 45.8431 1.41562 45.0087 2.80268 45.0629C4.18974 45.1387 4.8941 46.0381 5.06748 47.3818Z" fill="#B4874C"/>
<path d="M128.353 47.1326C128.245 48.8665 127.464 49.7767 125.882 49.7767C124.506 49.7767 123.639 48.9965 123.531 47.642C123.401 46.114 124.17 45.1062 125.752 44.987C127.345 44.8787 128.104 45.8323 128.353 47.1326Z" fill="#B4874C"/>
<path d="M5.30526 65.0018C5.1969 66.6597 4.29748 67.6242 2.56366 67.5591C1.02489 67.505 0.147155 66.5839 0.136319 65.0451C0.125482 63.3004 1.11159 62.3685 2.84541 62.4227C4.39501 62.4661 5.18606 63.4088 5.30526 65.0018Z" fill="#B4874C"/>
<path d="M5.06699 82.6542C4.86109 83.9979 4.12424 84.919 2.74802 84.8974C1.17674 84.8757 0.255647 83.8896 0.407356 82.3292C0.537393 81.0071 1.48015 80.1619 2.8672 80.2703C4.23259 80.3786 4.94778 81.2888 5.06699 82.6542Z" fill="#B4874C"/>
<path d="M128.342 82.5351C128.245 84.063 127.464 84.9841 125.882 84.9841C124.506 84.9841 123.639 84.2039 123.531 82.8493C123.401 81.3214 124.17 80.3028 125.752 80.1944C127.313 80.0969 128.158 80.9746 128.342 82.5351Z" fill="#B4874C"/>
</g>
</svg>
