<svg width="1222" height="1333" viewBox="0 0 1222 1333" fill="none" xmlns="http://www.w3.org/2000/svg">
<path d="M1221.48 1179.88H0V1333H1221.48V1179.88Z" fill="#952C2F"/>
<path fill-rule="evenodd" clip-rule="evenodd" d="M211.869 1208.19L187.997 1265.91L163.767 1199.17L138.462 1265.84L115.999 1208.19H95.6172L138.619 1315.85L163.364 1250.41L187.08 1315.76L232.296 1208.19H211.869Z" fill="white"/>
<path fill-rule="evenodd" clip-rule="evenodd" d="M279.619 1289.47C271.229 1289.47 264.002 1286.45 257.558 1280.23C251.115 1274.06 247.983 1266.34 247.983 1256.69C247.983 1247.05 251.003 1240 257.245 1233.76C263.487 1227.45 270.915 1224.39 279.977 1224.39C289.038 1224.39 296.488 1227.45 302.641 1233.76C308.838 1240.05 311.859 1247.61 311.859 1256.92C311.859 1266.23 308.816 1273.7 302.529 1280.08C296.264 1286.38 288.769 1289.45 279.619 1289.45V1289.47ZM280.155 1206.44C266.194 1206.44 254.068 1211.41 244.134 1221.19C234.133 1230.97 229.055 1242.87 229.055 1256.52C229.055 1272.02 234.626 1284.75 245.611 1294.35C255.545 1302.99 266.911 1307.37 279.417 1307.37C293.535 1307.37 305.751 1302.43 315.729 1292.69C325.685 1282.98 330.742 1270.99 330.742 1257.05C330.742 1243.11 325.708 1231.19 315.819 1221.3C305.952 1211.43 293.937 1206.42 280.133 1206.42L280.155 1206.44Z" fill="white"/>
<path fill-rule="evenodd" clip-rule="evenodd" d="M381.835 1237.95C381.835 1243.43 380.022 1250.75 364.361 1250.75H362.325V1226.14H364.898C380.067 1226.14 381.835 1232.89 381.835 1237.97V1237.95ZM394.095 1256.18C398.189 1251.04 400.27 1244.84 400.27 1237.75C400.27 1228.64 396.959 1221.19 390.404 1215.62C384.542 1210.65 375.078 1208.15 362.325 1208.15H343.531V1305.65H362.325V1269.32L387.674 1305.65H410.763L381.32 1265.13C386.443 1263.39 390.739 1260.39 394.095 1256.18Z" fill="white"/>
<path fill-rule="evenodd" clip-rule="evenodd" d="M436.31 1208.18H417.539V1305.68H463.584V1287.72H436.31V1208.18Z" fill="white"/>
<path fill-rule="evenodd" clip-rule="evenodd" d="M494.71 1287.72H490.817V1226.12H494.71C505.964 1226.12 514.533 1228.76 520.149 1233.93C526.503 1239.84 529.59 1247.36 529.59 1256.91C529.59 1266.46 526.48 1273.82 520.059 1279.69C516.972 1282.48 513.459 1284.56 509.655 1285.84C505.74 1287.07 500.728 1287.72 494.71 1287.72ZM516.748 1211.07C511.132 1209.14 503.436 1208.18 493.882 1208.18H472.023V1305.68H493.636C503.391 1305.68 510.774 1304.79 516.144 1303C521.916 1301.19 527.509 1297.92 532.745 1293.31C543.215 1284.07 548.496 1271.83 548.496 1256.93C548.496 1242.03 543.417 1229.93 533.371 1220.75C528.404 1216.21 522.789 1212.95 516.725 1211.07H516.748Z" fill="white"/>
<path fill-rule="evenodd" clip-rule="evenodd" d="M635.66 1245.94L626.419 1242.16C617.828 1238.62 617.828 1234.73 617.828 1233.45C617.828 1230.88 618.812 1228.82 620.848 1227.1C622.974 1225.27 625.614 1224.39 628.948 1224.39C631.632 1224.39 633.803 1224.91 635.481 1225.98C636.555 1226.61 638.3 1228.2 640.671 1232.31L641.879 1234.42L657.362 1225.24L656.176 1223.19C649.733 1212.02 640.604 1206.38 629.06 1206.38C620.558 1206.38 613.353 1208.98 607.603 1214.06C601.764 1219.18 598.811 1225.67 598.811 1233.32C598.811 1244.64 605.702 1253.32 619.327 1259.07L628.232 1262.79C630.447 1263.75 632.326 1264.73 633.87 1265.74C635.346 1266.7 636.555 1267.75 637.45 1268.8C638.322 1269.83 638.948 1270.93 639.351 1272.16C639.776 1273.41 639.978 1274.82 639.978 1276.34C639.978 1280.22 638.792 1283.28 636.353 1285.76C633.915 1288.22 630.916 1289.43 627.18 1289.43C622.437 1289.43 618.947 1287.8 616.486 1284.35C615.568 1283.17 614.338 1280.46 613.599 1274.26L613.286 1271.62L594.336 1275.81L594.672 1278.02C596.036 1287.2 599.527 1294.42 605.098 1299.57C610.78 1304.71 618.007 1307.33 626.643 1307.33C635.727 1307.33 643.468 1304.27 649.643 1298.25C655.773 1292.25 658.883 1284.56 658.883 1275.4C658.883 1268.51 656.959 1262.58 653.133 1257.8C649.397 1253.1 643.513 1249.12 635.66 1245.94Z" fill="white"/>
<path fill-rule="evenodd" clip-rule="evenodd" d="M717.744 1206.35C701.837 1206.35 688.659 1212.35 678.636 1224.18C670.492 1233.83 666.375 1244.97 666.375 1257.32C666.375 1271.1 671.32 1283 681.074 1292.78C690.852 1302.45 702.844 1307.35 716.67 1307.35C725.866 1307.35 734.726 1304.95 743.071 1300.25L744.302 1299.56V1276.13L740.341 1279.47C738.149 1281.32 736.023 1282.91 734.055 1284.21C732.108 1285.49 730.229 1286.52 728.394 1287.28C725.284 1288.73 721.414 1289.45 716.849 1289.45C707.9 1289.45 700.584 1286.4 694.431 1280.14C688.279 1273.85 685.281 1266.36 685.281 1257.21C685.281 1248.06 688.279 1240.29 694.476 1233.89C700.584 1227.49 707.878 1224.38 716.805 1224.38C724.837 1224.38 732.757 1227.61 740.364 1233.96L744.302 1237.25V1214.16L743.116 1213.47C735.017 1208.75 726.492 1206.35 717.767 1206.35H717.744Z" fill="white"/>
<path fill-rule="evenodd" clip-rule="evenodd" d="M813.651 1244.42H778.458V1208.18H759.664V1305.68H778.458V1262.39H813.651V1305.68H832.445V1208.18H813.651V1244.42Z" fill="white"/>
<path fill-rule="evenodd" clip-rule="evenodd" d="M895.752 1289.47C887.362 1289.47 880.136 1286.45 873.692 1280.23C867.249 1274.06 864.094 1266.34 864.094 1256.69C864.094 1247.05 867.114 1240 873.379 1233.76C879.599 1227.45 887.027 1224.39 896.11 1224.39C905.194 1224.39 912.622 1227.45 918.775 1233.76C924.972 1240.05 927.993 1247.61 927.993 1256.92C927.993 1266.23 924.95 1273.7 918.663 1280.08C912.376 1286.38 904.881 1289.45 895.752 1289.45V1289.47ZM896.289 1206.44C882.328 1206.44 870.202 1211.41 860.268 1221.19C850.267 1230.97 845.211 1242.87 845.211 1256.52C845.211 1272.02 850.782 1284.75 861.767 1294.35C871.701 1302.99 883.067 1307.37 895.596 1307.37C909.713 1307.37 921.929 1302.43 931.908 1292.69C941.864 1282.98 946.92 1270.99 946.92 1257.05C946.92 1243.11 941.886 1231.19 931.975 1221.3C922.108 1211.43 910.116 1206.42 896.289 1206.42V1206.44Z" fill="white"/>
<path fill-rule="evenodd" clip-rule="evenodd" d="M1005.65 1289.47C997.261 1289.47 990.034 1286.45 983.591 1280.23C977.147 1274.06 974.015 1266.34 974.015 1256.69C974.015 1247.05 977.035 1240 983.3 1233.76C989.52 1227.45 996.948 1224.39 1006.03 1224.39C1015.11 1224.39 1022.54 1227.45 1028.7 1233.76C1034.89 1240.05 1037.91 1247.61 1037.91 1256.92C1037.91 1266.23 1034.87 1273.7 1028.58 1280.08C1022.3 1286.38 1014.8 1289.45 1005.67 1289.45L1005.65 1289.47ZM1006.19 1206.44C992.227 1206.44 980.1 1211.41 970.167 1221.19C960.166 1230.97 955.109 1242.87 955.109 1256.52C955.109 1272.02 960.68 1284.75 971.666 1294.35C981.599 1302.99 992.965 1307.37 1005.49 1307.37C1019.61 1307.37 1031.83 1302.43 1041.81 1292.69C1051.76 1282.98 1056.82 1270.99 1056.82 1257.05C1056.82 1243.11 1051.78 1231.19 1041.87 1221.3C1032.01 1211.43 1020.01 1206.42 1006.19 1206.42V1206.44Z" fill="white"/>
<path fill-rule="evenodd" clip-rule="evenodd" d="M1088.4 1287.72V1208.18H1069.61V1305.68H1115.63V1287.72H1088.4Z" fill="white"/>
<path fill-rule="evenodd" clip-rule="evenodd" d="M76.6045 976.646V1042.49H72.7338C72.5324 1035.6 70.3623 1024.68 66.268 1009.71C65.0598 1004.75 63.6278 1000 61.9722 995.462C60.3166 990.921 57.8108 986.782 54.4548 983.023C51.0764 979.264 46.9596 977.385 42.0822 977.385C34.0949 977.385 30.0901 982.352 30.0901 992.285C30.0901 998.729 32.0365 1005.73 35.9295 1013.23C40.1805 1021.48 46.6465 1032.6 55.3274 1046.56C60.5404 1054.66 64.2766 1060.55 66.5811 1064.24C68.8632 1067.93 71.3242 1072.34 73.9643 1077.42C76.582 1082.5 78.7076 1087.71 80.3632 1092.99C81.9965 1098.29 82.8018 1103.48 82.8018 1108.58C82.8018 1118.56 79.8262 1127.44 73.8749 1135.25C67.9459 1143.04 58.9518 1146.95 46.8925 1146.95C37.6971 1146.95 30.2691 1143.51 24.6534 1136.62L10.4687 1144.94H6.19531V1073.79H10.4687L10.7818 1076.07C11.2964 1083.41 12.6389 1092.25 14.8092 1102.56C16.957 1112.88 20.4472 1122.3 25.2127 1130.87C30.0006 1139.44 36.1533 1143.71 43.6708 1143.71C48.3468 1143.71 51.9042 1141.87 54.3205 1138.23C56.7369 1134.58 57.945 1130.75 57.945 1126.77C57.945 1121.47 57.3185 1116.37 56.088 1111.47C54.8574 1106.57 53.1347 1101.8 50.9645 1097.17C48.7719 1092.56 46.7583 1088.65 44.9013 1085.45C43.0219 1082.25 39.6211 1076.52 34.6766 1068.27C28.2107 1057.93 22.058 1047.57 16.2186 1037.23C10.4238 1026.63 7.5378 1017.48 7.5378 1009.76C7.5378 1007.54 7.64956 1005.87 7.85092 1004.7C8.52212 999.781 10.312 994.993 13.1758 990.384C16.0396 985.752 19.9326 981.994 24.8548 979.04C29.7769 976.109 35.415 974.633 41.7691 974.633C48.1231 974.633 53.3809 977.318 58.2583 982.687L59.8244 984.477L72.7562 976.646H76.6267H76.6045Z" fill="#1F252B"/>
<path fill-rule="evenodd" clip-rule="evenodd" d="M200.936 979.399H191.225V1142.12H200.936V1144.9H152.43V1142.12H162.14V984.926L137.597 1144.9H125.291L102.739 984.926V1120.69C102.739 1127.78 103.432 1133.13 104.819 1136.73C106.207 1140.33 109.182 1142.12 113.702 1142.12H115.603V1144.9H86.8984V1142.12C91.6416 1142.12 94.7515 1140.67 96.2505 1137.78C97.7495 1134.89 98.5101 1131.02 98.5101 1126.24V979.399H88.8001V976.625H129.9L144.42 1074.02L159.657 976.625H201.003V979.399H200.936Z" fill="#1F252B"/>
<path fill-rule="evenodd" clip-rule="evenodd" d="M251.703 1107.08L240.427 1019.74L225.594 1107.08H251.703ZM262.353 976.625L284.995 1142.12H294.705V1144.9H243.985V1142.12H255.977L252.039 1109.86H225.213L222.685 1126.01C222.215 1128.59 221.969 1130.6 221.969 1132.05C221.969 1138.79 225.213 1142.14 231.679 1142.14H233.648V1144.92H205.883V1142.14H207.784C211.051 1142.14 213.288 1141.14 214.519 1139.15C215.749 1137.18 216.734 1134.47 217.472 1131.05L218.412 1125.77L243.962 976.647H262.331L262.353 976.625Z" fill="#1F252B"/>
<path fill-rule="evenodd" clip-rule="evenodd" d="M354.817 976.625V979.399H341.572V1142.12C350.029 1142.12 356.428 1141.16 360.746 1139.23C365.064 1137.31 368.375 1133.31 370.68 1127.22C375.893 1114.69 379.227 1099.32 380.703 1081.09L381.016 1077.01H384.574V1144.9H302.844V1142.12H312.554V979.399H302.844V976.625H354.817Z" fill="#1F252B"/>
<path fill-rule="evenodd" clip-rule="evenodd" d="M441.341 976.625V979.399H428.096V1142.12C436.553 1142.12 442.952 1141.16 447.27 1139.23C451.588 1137.31 454.899 1133.31 457.203 1127.22C462.416 1114.69 465.75 1099.32 467.227 1081.09L467.54 1077.01H471.097V1144.9H389.367V1142.12H399.077V979.399H389.367V976.625H441.363H441.341Z" fill="#1F252B"/>
<path fill-rule="evenodd" clip-rule="evenodd" d="M524.133 976.625H572.571V979.399H562.861L576.442 1095.2L591.991 995.038L590.023 979.399H580.312V976.625H629.131V979.399H619.108L633.002 1096.5L646.247 1005.64C647.567 997.611 648.216 991.615 648.216 987.722C648.216 985.216 647.187 983.248 645.106 981.793C643.025 980.339 640.385 979.534 637.186 979.422V976.647H664.011V979.422H662.132C658.351 979.422 655.845 980.943 654.637 983.986C653.63 986.178 652.556 991.391 651.415 999.625L629.802 1144.94H610.718L593.915 1008.93L573.242 1144.94H555.165L533.865 979.422H524.155V976.647L524.133 976.625Z" fill="#1F252B"/>
<path fill-rule="evenodd" clip-rule="evenodd" d="M698.915 997.101V1124.47C698.915 1125.01 698.871 1126.04 698.759 1127.63C698.647 1129.17 698.602 1130.4 698.602 1131.32C698.602 1139.71 701.824 1143.98 708.312 1144.21C712.049 1144.21 714.532 1143.29 715.74 1141.43C717.262 1139.66 718.022 1136.8 718.022 1132.82C718.022 1131.79 717.978 1130.36 717.866 1128.5C717.754 1126.67 717.709 1125.32 717.709 1124.5V997.124C717.709 996.497 717.754 995.334 717.866 993.611C717.978 991.888 718.022 990.524 718.022 989.539C718.022 985.064 717.262 981.932 715.74 980.165C714.577 978.33 712.116 977.39 708.312 977.39C701.846 977.592 698.602 981.887 698.602 990.255C698.602 991.15 698.647 992.381 698.759 993.947C698.848 995.49 698.915 996.564 698.915 997.101ZM748.07 1063.42C748.07 1083.62 746.548 1100.2 743.506 1113.13C741.716 1121.48 737.756 1129.19 731.625 1136.29C725.495 1143.38 717.731 1146.94 708.312 1146.94C698.893 1146.94 691.264 1143.42 685.245 1136.4C679.227 1129.37 675.155 1121.63 673.052 1113.13C670.054 1100.44 668.555 1083.87 668.555 1063.42C668.555 1048.56 669.047 1035.72 670.054 1024.91C671.061 1014.11 673.477 1004.42 677.303 995.781C683.97 981.664 694.306 974.594 708.29 974.594C719.588 974.594 728.202 978.666 734.131 986.832C740.038 994.976 743.841 1004.55 745.519 1015.54C747.197 1026.52 748.047 1038.27 748.047 1050.8V1063.42H748.07Z" fill="#1F252B"/>
<path fill-rule="evenodd" clip-rule="evenodd" d="M757.75 976.625H797.821L822.655 1088.13V995.307C822.655 994.725 822.7 993.785 822.812 992.465C822.923 991.145 822.968 990.071 822.968 989.266C822.968 982.688 820.082 979.399 814.287 979.399H812.005V976.625H838.518V979.399H836.236C832.298 979.399 829.747 980.786 828.584 983.583C827.421 986.38 826.861 990.429 826.861 995.777V1144.92H806.188L771.621 990.989V1121.94C771.621 1122.72 771.576 1123.91 771.465 1125.52C771.353 1127.13 771.308 1128.29 771.308 1129.03C771.308 1133.02 772.181 1136.21 773.903 1138.63C775.648 1140.98 779.407 1142.14 785.18 1142.14V1144.92H755.445V1142.14C760.502 1141.94 763.746 1140.15 765.222 1136.73C766.699 1133.33 767.437 1128.25 767.437 1121.45V979.399H757.727V976.625H757.75Z" fill="#1F252B"/>
<path fill-rule="evenodd" clip-rule="evenodd" d="M883.321 979.424V1142.15C890.167 1142.15 894.933 1141.5 897.685 1140.22C900.414 1138.92 901.779 1135.88 901.779 1131.07V990.767C901.779 985.89 900.414 982.757 897.685 981.437C894.955 980.095 890.167 979.424 883.321 979.424ZM844.593 1144.94V1142.17H854.303V979.446H844.593V976.672H883.321C895.537 976.672 904.665 978.775 910.773 982.959C919.767 989.313 925.584 998.62 928.202 1010.86C930.82 1023.1 932.14 1037.35 932.14 1053.59V1060.93C932.14 1075.43 931.58 1087.6 930.439 1097.42C929.298 1107.24 926.546 1116.64 922.116 1125.54C917.485 1135.23 909.945 1141.3 899.475 1143.71C896.051 1144.54 890.66 1144.94 883.299 1144.94H844.57H844.593Z" fill="#1F252B"/>
<path fill-rule="evenodd" clip-rule="evenodd" d="M1021.72 976.625V1040.7H1017.78C1017.51 1030.48 1015.7 1018.71 1012.35 1005.4C1007.76 988.08 998.833 979.399 985.521 979.399H980.308V1056.83C985.364 1056.83 989.257 1054.82 991.987 1050.79C995.812 1044.6 998.408 1034.53 999.728 1020.54L1000.35 1015.49H1003.91V1102.27H1000.35C999.728 1094.06 998.922 1087.28 997.96 1081.96C996.998 1076.61 995.096 1071.44 992.322 1066.43C989.861 1062.09 985.856 1059.9 980.33 1059.9V1142.12C992.949 1142.12 1001.9 1136.08 1007.16 1123.95C1012.37 1113.19 1015.93 1096.79 1017.81 1074.75H1021.74V1144.92H941.602V1142.14H951.312V979.422H941.602V976.647H1021.74L1021.72 976.625Z" fill="#1F252B"/>
<path fill-rule="evenodd" clip-rule="evenodd" d="M1071.16 979.645V1058.36H1076.68C1082.37 1058.36 1085.95 1056.88 1087.42 1053.93C1088.9 1050.97 1089.62 1046.63 1089.62 1040.93V995.038C1089.62 990.966 1089.12 987.834 1088.16 985.641C1087.18 983.449 1085.39 981.905 1082.79 980.988C1080.2 980.093 1076.3 979.645 1071.16 979.645ZM1032.43 976.625H1071.16C1084.98 976.625 1096.19 980.249 1104.76 987.454C1114.7 995.71 1119.66 1007.3 1119.66 1022.27C1119.19 1028.17 1117.31 1033.83 1114.03 1039.27C1110.74 1044.68 1106.26 1049.2 1100.58 1052.83C1096.22 1055.58 1090.6 1057.93 1083.78 1059.9C1094.99 1061.33 1103.06 1064.87 1107.98 1070.48C1113.6 1076.97 1116.42 1086.97 1116.42 1100.48V1135.3C1116.42 1138 1117.49 1139.37 1119.64 1139.37C1123.27 1139.37 1125.91 1137.11 1127.54 1132.59C1129.17 1128.07 1130 1123.95 1130 1120.22C1130 1118.88 1129.89 1117.85 1129.69 1117.15H1133.87C1133.87 1135.59 1126.22 1145.52 1110.92 1146.95C1102.28 1146.95 1096.57 1144.72 1093.8 1140.24C1091 1135.77 1089.62 1130.02 1089.62 1122.99V1075.81C1089.62 1069.65 1088.45 1065.67 1086.15 1063.86C1083.82 1062.05 1078.83 1061.15 1071.16 1061.15V1142.14H1080.87V1144.92H1032.43V1142.14H1042.14V979.668H1032.43V976.647V976.625Z" fill="#1F252B"/>
<path fill-rule="evenodd" clip-rule="evenodd" d="M1207.81 976.646V1042.49H1203.93C1203.73 1035.6 1201.56 1024.68 1197.47 1009.71C1196.26 1004.75 1194.83 1000 1193.17 995.462C1191.52 990.921 1189.01 986.782 1185.63 983.023C1182.28 979.264 1178.14 977.385 1173.26 977.385C1165.27 977.385 1161.27 982.352 1161.27 992.285C1161.27 998.729 1163.22 1005.73 1167.11 1013.23C1171.36 1021.48 1177.82 1032.6 1186.51 1046.56C1191.72 1054.66 1195.46 1060.55 1197.76 1064.24C1200.04 1067.93 1202.5 1072.34 1205.14 1077.42C1207.76 1082.5 1209.89 1087.71 1211.54 1092.99C1213.17 1098.29 1213.98 1103.48 1213.98 1108.58C1213.98 1118.56 1211 1127.44 1205.05 1135.25C1199.12 1143.04 1190.13 1146.95 1178.07 1146.95C1168.88 1146.95 1161.45 1143.51 1155.83 1136.62L1141.62 1144.94H1137.35V1073.79H1141.62L1141.94 1076.07C1142.45 1083.41 1143.8 1092.25 1145.97 1102.56C1148.11 1112.88 1151.6 1122.3 1156.37 1130.87C1161.16 1139.44 1167.31 1143.71 1174.83 1143.71C1179.5 1143.71 1183.06 1141.87 1185.48 1138.23C1187.89 1134.58 1189.1 1130.75 1189.1 1126.77C1189.1 1121.47 1188.47 1116.37 1187.24 1111.47C1186.01 1106.57 1184.29 1101.8 1182.12 1097.17C1179.93 1092.56 1177.91 1088.65 1176.06 1085.45C1174.2 1082.25 1170.78 1076.52 1165.83 1068.27C1159.37 1057.93 1153.21 1047.57 1147.37 1037.23C1141.58 1026.63 1138.69 1017.48 1138.69 1009.76C1138.69 1007.54 1138.81 1005.87 1139.01 1004.7C1139.68 999.781 1141.47 994.993 1144.33 990.384C1147.2 985.752 1151.09 981.994 1156.01 979.04C1160.93 976.109 1166.57 974.633 1172.93 974.633C1179.28 974.633 1184.54 977.318 1189.41 982.687L1190.98 984.477L1203.91 976.646H1207.78H1207.81Z" fill="#1F252B"/>
<path fill-rule="evenodd" clip-rule="evenodd" d="M262.614 197.305C446.595 188.791 606.28 31.0759 610.461 26.9263C610.524 26.8648 610.651 26.7418 610.651 26.7418L610.809 26.8955C610.809 26.8955 772.395 188.853 958.847 197.49C958.847 197.49 998.411 430.543 889.759 630.031H910.951C1015.61 428.238 978.898 197.859 978.296 194.355L975.699 179.078L959.765 178.34C783.513 170.195 626.521 15.123 624.937 13.5553L609.827 0L596.428 13.4016C594.876 14.9693 437.884 170.041 261.632 178.187L245.698 178.924L243.101 194.201C242.499 197.674 205.626 428.176 310.193 630.031H331.385C222.827 430.482 262.582 197.336 262.582 197.336L262.614 197.305Z" fill="#1F252B"/>
<path fill-rule="evenodd" clip-rule="evenodd" d="M958.878 197.451C772.426 188.845 610.841 26.8568 610.841 26.8568L610.682 26.7031C610.682 26.7031 610.556 26.8568 610.492 26.8875V629.992H889.822C998.474 430.504 958.878 197.451 958.878 197.451Z" fill="#DEDED4"/>
<path fill-rule="evenodd" clip-rule="evenodd" d="M262.59 197.332C262.59 197.332 222.835 430.477 331.393 630.027H610.437V26.9219C606.256 31.0715 446.571 188.817 262.59 197.301V197.332Z" fill="#952C2F"/>
<path fill-rule="evenodd" clip-rule="evenodd" d="M610.211 408.064V408.35C610.211 408.35 610.309 408.35 610.375 408.382V407.969L610.244 408.064H610.211Z" fill="#1F252B"/>
<path fill-rule="evenodd" clip-rule="evenodd" d="M688.674 258.589L688.547 258.312C708.567 282.226 711.988 312.841 711.988 312.841L721.523 312.288L715.061 223.487L704.702 224.87C705.051 234.429 698.874 236.581 693.267 236.612C688.832 236.612 684.587 235.044 680.818 232.769C678.79 231.54 676.668 230.464 674.546 229.419C673.88 229.112 673.247 228.773 672.582 228.466C672.518 228.435 672.455 228.405 672.392 228.374C658.327 221.765 644.769 217.769 632.288 215.648C624.686 214.358 617.305 213.804 610.336 213.773V228.066C617.495 228.343 624.908 229.204 632.288 230.71C654.842 235.321 676.921 245.218 688.642 258.589H688.674Z" fill="#1F252B"/>
<path fill-rule="evenodd" clip-rule="evenodd" d="M780.884 228.14V237.884H792.858C800.239 238.099 811.357 245.384 808.031 258.878L743.821 448.929C743.821 448.929 757.506 372.884 649.075 342.423C649.075 342.423 643.69 340.886 638.4 339.687C636.436 339.226 632.349 338.335 632.349 338.335C630.607 338.058 628.865 337.659 627.123 337.29C620.122 335.722 610.492 333.263 610.492 333.263V401.593C623.765 406.112 632.571 407.925 632.571 407.925C632.571 407.925 730.422 432.976 720.19 490.21L704.605 543.417L725.417 542.495L816.172 273.263C816.172 273.263 828.653 237.331 852.601 237.853H865.177V228.109H780.915L780.884 228.14Z" fill="#1F252B"/>
<path fill-rule="evenodd" clip-rule="evenodd" d="M650.453 228.477C650.453 228.477 650.595 228.546 650.667 228.58C650.595 228.58 650.524 228.511 650.453 228.477Z" fill="#1F252B"/>
<path fill-rule="evenodd" clip-rule="evenodd" d="M652.512 229.397C651.881 229.091 651.249 228.845 650.586 228.539C651.249 228.845 651.881 229.183 652.544 229.489L652.481 229.366L652.512 229.397Z" fill="#1F252B"/>
<path d="M975.97 636.562H245.969V769.104H975.97V636.562Z" fill="#1F252B" stroke="white" stroke-width="3.16772" stroke-miterlimit="10"/>
<path fill-rule="evenodd" clip-rule="evenodd" d="M323.262 807.591L323.927 776.484H267.32L323.262 807.591Z" fill="#1F252B"/>
<path fill-rule="evenodd" clip-rule="evenodd" d="M307.261 810.878L238.3 769.874L238.427 754.843V684.977L126.891 685.561L157.84 747.927L124.516 810.878H307.261Z" fill="#1F252B"/>
<path fill-rule="evenodd" clip-rule="evenodd" d="M323.262 807.591L323.927 776.484H267.32L323.262 807.591Z" fill="#1F252B" stroke="white" stroke-width="3.16772" stroke-miterlimit="10"/>
<path fill-rule="evenodd" clip-rule="evenodd" d="M307.261 810.878L238.3 769.874L238.427 754.843V684.977L126.891 685.561L157.84 747.927L124.516 810.878H307.261Z" fill="#1F252B" stroke="white" stroke-width="3.16772" stroke-miterlimit="10"/>
<path fill-rule="evenodd" clip-rule="evenodd" d="M898.571 807.591L897.906 776.484H954.513L898.571 807.591Z" fill="#1F252B"/>
<path fill-rule="evenodd" clip-rule="evenodd" d="M914.578 810.909L983.508 769.874L983.413 754.843V684.977L1094.92 685.561L1063.97 747.958L1097.32 810.909H914.578Z" fill="#1F252B"/>
<path fill-rule="evenodd" clip-rule="evenodd" d="M898.571 807.591L897.906 776.484H954.513L898.571 807.591Z" fill="#1F252B" stroke="white" stroke-width="3.16772" stroke-miterlimit="10"/>
<path fill-rule="evenodd" clip-rule="evenodd" d="M914.578 810.909L983.508 769.874L983.413 754.843V684.977L1094.92 685.561L1063.97 747.958L1097.32 810.909H914.578Z" fill="#1F252B" stroke="white" stroke-width="3.16772" stroke-miterlimit="10"/>
<path fill-rule="evenodd" clip-rule="evenodd" d="M441.492 723.921V671.852H473.803V680.12H451.756V693.061H472.789V701.175H451.756V715.622H473.803V723.921H441.492Z" fill="white"/>
<path fill-rule="evenodd" clip-rule="evenodd" d="M516.189 710.373C516.189 712.801 515.714 714.953 514.795 716.736C513.845 718.549 512.578 720.025 510.899 721.223C509.22 722.391 507.225 723.283 504.944 723.836C502.631 724.42 500.129 724.697 497.373 724.697C494.934 724.697 492.59 724.574 490.341 724.297C488.091 724.021 485.842 723.56 483.625 722.914V714.584C484.702 714.953 485.842 715.291 487.014 715.598C488.187 715.937 489.359 716.213 490.562 716.428C491.766 716.674 492.938 716.859 494.11 716.982C495.282 717.135 496.423 717.197 497.531 717.197C499.179 717.197 500.572 717.074 501.744 716.797C502.916 716.521 503.835 716.152 504.564 715.66C505.292 715.168 505.831 714.615 506.147 713.939C506.464 713.262 506.654 712.555 506.654 711.756C506.654 710.65 506.338 709.728 505.672 708.99C505.039 708.252 504.183 707.576 503.106 707.023C502.061 706.469 500.857 705.947 499.495 705.486C498.133 705.025 496.771 704.533 495.377 704.01C493.983 703.488 492.59 702.904 491.228 702.227C489.865 701.582 488.662 700.752 487.616 699.769C486.539 698.785 485.684 697.617 485.051 696.264C484.385 694.912 484.069 693.252 484.069 691.346C484.069 689.594 484.385 687.904 485.051 686.336C485.716 684.768 486.761 683.385 488.155 682.217C489.58 681.049 491.386 680.096 493.603 679.42C495.821 678.713 498.482 678.375 501.618 678.375C502.536 678.375 503.487 678.406 504.5 678.498C505.514 678.559 506.496 678.682 507.478 678.805C508.46 678.928 509.41 679.082 510.297 679.266C511.216 679.451 512.039 679.605 512.8 679.789V687.504C512.039 687.227 511.216 686.982 510.329 686.766C509.442 686.551 508.492 686.336 507.541 686.152C506.591 685.967 505.609 685.844 504.659 685.752C503.708 685.66 502.79 685.598 501.903 685.598C500.351 685.598 499.083 685.721 498.006 685.967C496.961 686.213 496.074 686.551 495.409 686.951C494.744 687.381 494.237 687.904 493.92 688.519C493.603 689.133 493.445 689.809 493.445 690.578C493.445 691.5 493.762 692.33 494.427 693.006C495.092 693.682 495.947 694.266 497.024 694.82C498.102 695.373 499.305 695.865 500.667 696.326C502.029 696.787 503.423 697.309 504.849 697.832C506.274 698.385 507.668 698.969 509.03 699.676C510.392 700.353 511.596 701.182 512.673 702.197C513.75 703.18 514.605 704.348 515.27 705.67C515.904 707.023 516.221 708.59 516.221 710.435L516.189 710.373Z" fill="white"/>
<path fill-rule="evenodd" clip-rule="evenodd" d="M544.26 686.133V723.909H535.327V686.133H522.688V679.094H556.899V686.133H544.26Z" fill="white"/>
<path fill-rule="evenodd" clip-rule="evenodd" d="M582.637 709.266C583.778 709.266 584.855 709.481 585.837 709.88C586.819 710.28 587.674 710.833 588.402 711.54C589.131 712.247 589.701 713.077 590.113 714.03C590.525 714.983 590.715 716.028 590.715 717.104C590.715 718.18 590.493 719.163 590.113 720.116C589.701 721.069 589.131 721.899 588.402 722.575C587.674 723.282 586.819 723.835 585.837 724.266C584.855 724.665 583.778 724.88 582.637 724.88C581.497 724.88 580.515 724.665 579.564 724.266C578.614 723.866 577.759 723.313 577.062 722.575C576.365 721.868 575.795 721.038 575.383 720.116C574.971 719.194 574.781 718.18 574.781 717.104C574.781 716.028 574.971 714.983 575.383 714.03C575.795 713.077 576.365 712.247 577.062 711.54C577.759 710.833 578.614 710.28 579.564 709.88C580.515 709.481 581.56 709.266 582.637 709.266Z" fill="white"/>
<path fill-rule="evenodd" clip-rule="evenodd" d="M611.268 723.953V716.791L623.971 704.466C626.346 702.16 628.247 700.162 629.704 698.502C631.13 696.843 632.238 695.336 633.03 694.015C633.822 692.693 634.329 691.463 634.583 690.357C634.836 689.25 634.963 688.082 634.963 686.884C634.963 685.9 634.804 684.947 634.488 684.086C634.171 683.226 633.696 682.427 633.062 681.781C632.429 681.136 631.637 680.613 630.686 680.244C629.736 679.845 628.627 679.66 627.392 679.66C625.269 679.66 623.337 680.091 621.532 680.982C619.726 681.873 618.015 683.072 616.4 684.548L611.078 677.939C613.391 675.849 616.02 674.158 618.934 672.898C621.848 671.638 625.016 670.992 628.406 670.992C631.035 670.992 633.41 671.33 635.565 671.976C637.687 672.621 639.524 673.574 641.045 674.865C642.565 676.156 643.737 677.724 644.593 679.66C645.416 681.566 645.828 683.779 645.828 686.269C645.828 688.328 645.543 690.265 644.973 692.078C644.402 693.861 643.579 695.613 642.47 697.304C641.362 698.994 640.031 700.716 638.415 702.406C636.8 704.097 634.994 705.91 632.935 707.785L625.111 715.009H647.729V723.984H611.3L611.268 723.953Z" fill="white"/>
<path fill-rule="evenodd" clip-rule="evenodd" d="M686.062 697.98C686.062 697.519 686.062 697.058 686.03 696.597C685.998 696.136 685.967 695.675 685.967 695.275L665.978 709.291C666.865 711.873 668.101 713.779 669.685 715.039C671.268 716.3 673.137 716.914 675.228 716.914C676.749 716.914 678.206 716.546 679.536 715.746C680.867 714.978 682.007 713.81 682.989 712.273C683.971 710.705 684.731 708.738 685.27 706.371C685.808 704.005 686.093 701.207 686.093 697.98H686.062ZM664.363 697.826C664.363 694.599 664.648 691.771 665.218 689.435C665.788 687.068 666.549 685.101 667.531 683.533C668.513 681.966 669.653 680.798 670.952 680.06C672.251 679.291 673.676 678.923 675.228 678.923C677.35 678.923 679.219 679.568 680.803 680.828C682.387 682.089 683.654 684.025 684.605 686.668L664.49 700.777C664.426 700.316 664.395 699.824 664.395 699.363V697.857L664.363 697.826ZM696.167 697.673C696.167 701.945 695.692 705.787 694.741 709.138C693.791 712.519 692.366 715.377 690.528 717.683C688.691 719.988 686.442 721.771 683.781 723C681.12 724.23 678.079 724.845 674.658 724.845C671.712 724.845 668.956 724.353 666.485 723.339C663.983 722.324 661.829 720.726 660.023 718.574C658.217 716.392 656.824 713.625 655.778 710.275C654.765 706.894 654.258 702.867 654.258 698.164C654.258 693.892 654.733 690.05 655.715 686.699C656.697 683.318 658.091 680.49 659.928 678.154C661.765 675.818 664.014 674.066 666.707 672.836C669.399 671.607 672.441 670.992 675.83 670.992C678.808 670.992 681.5 671.484 684.003 672.498C686.474 673.513 688.628 675.08 690.433 677.232C692.239 679.384 693.633 682.15 694.646 685.531C695.66 688.912 696.167 692.97 696.167 697.703V697.673Z" fill="white"/>
<path fill-rule="evenodd" clip-rule="evenodd" d="M732.296 697.98C732.296 697.519 732.296 697.058 732.264 696.597C732.233 696.136 732.201 695.675 732.201 695.275L712.213 709.291C713.1 711.873 714.335 713.779 715.919 715.039C717.503 716.3 719.372 716.914 721.462 716.914C723.015 716.914 724.44 716.546 725.771 715.746C727.101 714.978 728.241 713.81 729.223 712.273C730.205 710.705 730.966 708.738 731.504 706.371C732.043 704.005 732.328 701.207 732.328 697.98H732.296ZM710.597 697.826C710.597 694.599 710.882 691.771 711.452 689.435C712.023 687.068 712.783 685.101 713.765 683.533C714.747 681.966 715.887 680.798 717.186 680.06C718.485 679.291 719.91 678.923 721.462 678.923C723.585 678.923 725.454 679.568 727.038 680.828C728.622 682.089 729.889 684.025 730.839 686.668L710.724 700.777C710.661 700.316 710.629 699.824 710.629 699.363V697.857L710.597 697.826ZM742.401 697.673C742.401 701.945 741.926 705.787 740.976 709.138C740.025 712.519 738.6 715.377 736.763 717.683C734.925 719.988 732.676 721.771 730.015 723C727.354 724.23 724.313 724.845 720.892 724.845C717.946 724.845 715.222 724.353 712.72 723.339C710.217 722.324 708.063 720.726 706.257 718.574C704.452 716.392 703.058 713.625 702.013 710.275C700.999 706.894 700.492 702.867 700.492 698.164C700.492 693.892 700.967 690.05 701.949 686.699C702.931 683.318 704.325 680.49 706.162 678.154C708 675.818 710.249 674.066 712.941 672.836C715.634 671.607 718.675 670.992 722.064 670.992C725.042 670.992 727.735 671.484 730.237 672.498C732.708 673.513 734.862 675.08 736.668 677.232C738.473 679.384 739.867 682.15 740.881 685.531C741.894 688.912 742.401 692.97 742.401 697.703V697.673Z" fill="white"/>
<path fill-rule="evenodd" clip-rule="evenodd" d="M749.987 723.953V716.791L762.69 704.466C765.065 702.16 766.966 700.162 768.423 698.502C769.849 696.843 770.957 695.336 771.749 694.015C772.541 692.693 773.048 691.463 773.301 690.357C773.555 689.25 773.682 688.082 773.682 686.884C773.682 685.9 773.523 684.947 773.206 684.086C772.89 683.195 772.414 682.427 771.781 681.781C771.147 681.136 770.355 680.613 769.405 680.244C768.455 679.845 767.346 679.66 766.111 679.66C763.988 679.66 762.056 680.091 760.25 680.982C758.445 681.873 756.734 683.072 755.119 684.548L749.797 677.939C752.141 675.849 754.739 674.158 757.653 672.898C760.567 671.638 763.735 670.992 767.124 670.992C769.754 670.992 772.129 671.33 774.283 671.976C776.406 672.621 778.243 673.574 779.763 674.865C781.284 676.156 782.456 677.724 783.311 679.66C784.135 681.566 784.547 683.779 784.547 686.269C784.547 688.328 784.262 690.265 783.692 692.078C783.121 693.861 782.298 695.613 781.189 697.304C780.08 698.994 778.75 700.716 777.134 702.406C775.519 704.097 773.713 705.91 771.654 707.785L763.83 715.009H786.447V723.984H750.019L749.987 723.953Z" fill="white"/>
<path fill-rule="evenodd" clip-rule="evenodd" d="M610.637 864.45C610.637 864.45 610.574 864.45 610.542 864.419C546.966 841.489 494.604 810.966 451.428 775.648H422.031C469.737 818.62 529.322 855.597 603.763 882.401L610.637 884.89L617.511 882.401C691.953 855.567 751.537 818.589 799.275 775.648H769.878C726.671 810.997 674.277 841.519 610.637 864.45Z" fill="#1F252B"/>
<path fill-rule="evenodd" clip-rule="evenodd" d="M738.278 775.648H610.492V864.419C610.492 864.419 610.556 864.419 610.587 864.45C674.227 841.519 726.621 810.997 769.828 775.648H738.31H738.278Z" fill="#DEDED4"/>
<path fill-rule="evenodd" clip-rule="evenodd" d="M482.792 775.648H451.273C494.449 810.997 546.812 841.489 610.388 864.419V775.648H482.792Z" fill="#952C2F"/>
<path fill-rule="evenodd" clip-rule="evenodd" d="M572.608 315.642C555.724 301.349 548.09 278.45 555.408 257.179C559.019 246.667 565.259 239.72 572.608 235.11C581.763 229.638 595.479 227.517 610.368 228.071V213.778C598.077 213.685 587.085 215.161 578.437 216.913C577.994 217.005 577.582 217.097 577.138 217.189C565.956 219.556 559.209 222.476 559.209 222.476C518.155 237.876 490.85 274.331 505.009 317.886C514.639 347.456 540.868 368.511 567.001 382.804L539.632 463.429L455.276 261.144C455.276 261.144 448.972 238.03 472.508 232.558C473.205 232.405 473.586 232.282 474.124 232.128H487.904V222.384H354.859V232.128H358.629C365.63 232.128 372.409 234.372 377.825 238.675C383.781 243.409 390.275 250.632 395.976 261.698L510.268 536.308L528.767 535.263L579.197 389.013C590.443 394.362 601.53 398.603 610.399 401.585V333.255C600.484 330.273 591.33 326.739 585.216 323.788C580.591 321.575 576.378 318.808 572.608 315.612V315.642Z" fill="#E5E3D8"/>
</svg>
