<svg width="167" height="199" viewBox="0 0 167 199" fill="none" xmlns="http://www.w3.org/2000/svg">
<g opacity="0.35">
<path d="M68.1345 115.483C65.0164 115.502 62.5217 114.338 61.223 111.289C59.9328 108.271 61.0412 105.915 63.5308 103.728C60.2215 102.501 57.5764 100.839 57.2891 97.3001C57.0435 94.2659 58.6314 92.4282 61.2889 91.3508C61.5721 91.2931 61.85 91.2444 62.1332 91.1868C63.6081 91.1311 65.245 91.2001 66.3338 92.1932C68.3273 94.004 68.4895 92.7798 69.4919 91.3768C70.8678 89.4323 71.1325 88.4555 68.4908 87.2737C67.53 86.8383 66.9404 85.4675 66.1891 84.524C66.0739 84.1215 65.9586 83.719 65.8381 83.3255C65.7514 80.4877 66.5775 78.166 69.3681 77.0852C72.4643 75.887 75.0453 77.2153 77.6281 79.8447C78.5155 76.5798 80.0829 74.202 83.6631 74.1988C86.7258 74.2064 88.7288 75.9126 90.0242 78.5911C90.1052 78.8744 90.1767 79.1517 90.2578 79.4349C90.0988 80.6978 90.3957 82.3412 89.7008 83.1374C87.833 85.2924 89.3209 85.6127 91.0339 86.8573C93.0954 88.3544 93.602 87.92 94.5659 86.162C95.1074 85.1604 96.5224 84.6751 97.5443 83.9465C97.8425 83.8858 98.146 83.8161 98.4441 83.7554C101.59 83.6672 104.069 84.8585 105.383 87.8802C106.688 90.8959 105.648 93.269 103.169 95.438C106.322 96.7524 109.076 98.2979 109.366 101.875C109.612 104.909 108.043 106.759 105.432 107.89C105.09 107.96 104.752 108.021 104.419 108.096C103.111 107.826 101.51 107.939 100.558 107.202C98.5007 105.609 98.0985 106.354 97.0953 108.112C96.1239 109.816 95.5397 110.559 97.9023 111.703C98.9824 112.224 99.6201 113.735 100.45 114.789C100.548 115.132 100.647 115.474 100.754 115.823C101.014 118.878 100.018 121.242 97.0327 122.276C94.0674 123.298 91.5504 122.193 89.1582 119.485C88.0822 122.67 86.4649 125.177 82.727 125.07C79.8548 124.984 77.9477 123.337 76.6333 120.868C76.5096 120.435 76.3954 120.009 76.2663 119.586C76.0756 117.432 76.7817 115.6 78.1056 114.052C75.2387 111.836 72.6501 110.343 70.7163 114.334C70.4833 114.815 69.6538 114.976 69.0939 115.28C68.7606 115.355 68.4475 115.419 68.1345 115.483ZM87.9603 115.825C86.7963 113.743 92.3345 112.891 88.4334 110.451C86.4445 109.208 85.597 109.554 84.5895 111.297C82.4638 114.948 87.7994 113.554 87.9603 115.825ZM67.1767 103.018C69.074 102.316 71.0451 107.988 73.0136 103.099C74.5738 99.2084 70.5075 100.517 69.7175 98.7772C69.3862 100.596 68.0768 101.478 67.1767 103.018ZM99.6171 96.4766C94.7203 94.058 94.8247 94.1471 94.0947 95.0688C91.5747 98.2795 95.0957 98.8406 96.9571 100.741C97.268 98.7139 98.5635 97.7008 99.6171 96.4766ZM78.7993 83.3294C78.1219 85.0686 77.4816 86.5241 76.3183 87.8889C78.2265 87.6109 79.2224 91.8333 81.7392 88.5838C84.8466 84.5594 78.8772 85.5853 78.7993 83.3294ZM81.6922 98.2562C81.221 99.2277 79.6859 100.092 81.9322 100.968C83.0698 101.415 83.9886 102.916 84.997 100.818C85.6852 99.3917 85.9224 98.8149 84.2052 97.8866C82.9163 97.1867 82.0938 96.518 81.6922 98.2562Z" fill="#B4874C"/>
<path d="M91.1512 78.8108C91.0701 78.5276 90.9985 78.2504 90.9174 77.9672C91.0163 77.7341 91.1886 77.5098 91.214 77.268C91.4759 74.1075 92.799 71.7878 96.268 71.5081C99.0896 71.2812 101.31 72.6435 102.434 75.3014C103.817 78.5611 102.422 80.8481 99.8299 82.5661C99.632 82.701 99.5076 82.9551 99.3512 83.1525C99.0531 83.2131 98.7497 83.2827 98.4515 83.3434C95.459 82.7533 93.0344 81.2275 91.1512 78.8108Z" fill="#B4874C"/>
<path d="M99.8788 115.197C99.7806 114.854 99.6824 114.512 99.5746 114.163C99.8729 111.294 101.211 109.082 103.542 107.472C103.885 107.402 104.223 107.341 104.556 107.266C105.466 107.522 106.388 107.713 107.269 108.063C109.762 109.054 111.395 110.765 111.578 113.441C111.742 115.884 110.673 117.687 108.487 118.676C106.091 119.755 103.836 119.07 101.822 117.271C101.11 116.658 100.523 115.902 99.8788 115.197Z" fill="#B4874C"/>
<path d="M75.3802 120.225C75.5041 120.657 75.6183 121.083 75.7474 121.507C75.5924 122.122 75.432 122.746 75.2674 123.355C74.5812 125.971 73.0224 127.716 70.0992 127.782C67.4178 127.838 65.3435 126.517 64.2066 124.035C62.9758 121.336 63.8209 119.137 65.8292 117.364C66.3007 116.945 66.7913 116.537 67.2628 116.118C67.5758 116.055 67.8941 115.982 68.2072 115.918C71.119 116.446 73.481 117.945 75.3802 120.225Z" fill="#B4874C"/>
<path d="M63.0167 91.8265C62.7334 91.8841 62.4555 91.9328 62.1723 91.9904C58.8193 91.0792 55.5099 90.0723 55.0927 85.8903C54.8451 83.4562 55.896 81.6177 58.0965 80.6259C61.8587 78.9458 64.3427 81.3667 66.7406 83.9549C66.8559 84.3574 66.9712 84.7598 67.0918 85.1533C66.6816 87.9893 65.2657 90.1781 63.0167 91.8265Z" fill="#B4874C"/>
<path d="M101.508 131.375C100.103 133.877 96.4056 134.629 93.7953 132.951C91.3192 131.357 90.3189 127.893 91.6645 125.513C93.0749 123.002 96.7571 122.253 99.377 123.936C101.838 125.534 102.838 128.998 101.508 131.375Z" fill="#B4874C"/>
<path d="M48.9602 105.33C46.3362 103.742 45.3113 100.055 46.839 97.6775C48.2932 95.402 51.7303 94.7344 54.2297 96.2452C56.8538 97.8331 57.8786 101.521 56.351 103.898C54.9064 106.179 51.4596 106.841 48.9602 105.33Z" fill="#B4874C"/>
<path d="M59.426 115.727C58.0849 118.232 54.42 119.041 51.7928 117.414C49.3095 115.876 48.2688 112.436 49.5408 110.048C50.8819 107.543 54.5468 106.735 57.174 108.361C59.6669 109.905 60.7129 113.336 59.426 115.727Z" fill="#B4874C"/>
<path d="M112.052 102.834C109.496 101.043 108.719 97.3123 110.429 95.0478C112.082 92.8581 115.598 92.4111 117.977 94.0805C120.533 95.8716 121.305 99.6111 119.6 101.867C117.957 104.062 114.441 104.509 112.052 102.834Z" fill="#B4874C"/>
<path d="M72.5486 66.1781C75.0566 67.6083 76.2272 71.0063 75.0457 73.463C73.8259 76.0063 70.2088 76.955 67.5229 75.4269C64.8658 73.9166 63.7461 70.2558 65.2078 67.8131C66.5949 65.4961 70.0119 64.7301 72.5486 66.1781Z" fill="#B4874C"/>
<path d="M116.977 89.3852C115.505 91.8458 111.792 92.5143 109.243 90.7769C106.804 89.1197 105.893 85.6612 107.29 83.3261C108.763 80.8655 112.476 80.1971 115.024 81.9345C117.463 83.5917 118.37 87.0592 116.977 89.3852Z" fill="#B4874C"/>
<path d="M84.8457 63.4115C87.458 65.0412 88.4285 68.7321 86.8626 71.0855C85.3648 73.3461 81.9053 73.963 79.4422 72.4133C76.83 70.7836 75.8594 67.0928 77.4158 64.7335C78.9179 62.4878 82.3826 61.8619 84.8457 63.4115Z" fill="#B4874C"/>
<path d="M89.3626 134.285C87.9383 136.775 84.2476 137.494 81.6576 135.805C79.1922 134.192 78.226 130.737 79.5854 128.378C81.0096 125.888 84.6907 125.163 87.2851 126.867C89.7505 128.48 90.7124 131.92 89.3626 134.285Z" fill="#B4874C"/>
<path d="M53.0333 121.952C54.9472 119.63 57.3139 119.22 60.059 120.956C62.6794 122.616 63.362 125.907 61.5588 128.175C59.6673 130.547 57.1706 130.779 54.5447 128.908C51.8666 126.992 51.6105 124.528 53.0333 121.952Z" fill="#B4874C"/>
<path d="M106.167 129.791C103.557 127.869 102.748 125.541 104.157 122.856C105.5 120.303 108.819 119.66 111.359 121.478C114.01 123.376 114.684 125.866 113.094 128.414C111.503 130.986 109.028 131.268 106.167 129.791Z" fill="#B4874C"/>
<path d="M53.2104 91.4022C51.4787 93.8364 49.1527 94.554 46.3235 92.8267C43.5231 91.1172 42.7654 88.6373 44.2798 85.995C45.7984 83.3675 48.2789 82.8314 51.0953 84.514C53.9351 86.2233 54.4681 88.6622 53.2104 91.4022Z" fill="#B4874C"/>
<path d="M76.9256 136.977C75.2194 139.39 72.8775 140.134 70.0494 138.494C67.2555 136.862 66.4573 134.406 67.7544 131.666C68.992 129.048 72.289 128.306 74.8818 130.034C77.6035 131.855 78.1737 134.231 76.9256 136.977Z" fill="#B4874C"/>
<path d="M115.319 114.76C112.727 112.786 111.968 110.44 113.424 107.785C114.815 105.262 118.156 104.669 120.665 106.541C123.283 108.493 123.903 110.986 122.28 113.501C120.627 116.047 118.14 116.26 115.319 114.76Z" fill="#B4874C"/>
<path d="M60.5979 69.6232C63.1545 71.6354 63.8964 74.0323 62.243 76.5773C60.5842 79.1313 58.0409 79.5066 55.3225 77.7009C52.5754 75.8774 52.0017 73.3515 53.6306 70.8036C55.2809 68.2199 57.7657 68.0537 60.5979 69.6232Z" fill="#B4874C"/>
<path d="M98.8121 67.7236C96.893 70.2748 94.5212 70.915 91.7388 69.1308C88.966 67.3526 88.2839 64.8337 89.875 62.2388C91.4661 59.6439 93.9924 59.1852 96.7716 60.9306C99.5987 62.7057 99.973 65.1689 98.8121 67.7236Z" fill="#B4874C"/>
<path d="M113.718 77.087C111.944 79.4825 109.629 80.0718 106.795 78.44C104.086 76.8854 103.221 73.6152 104.914 71.2676C106.666 68.8214 109.141 68.4047 111.85 70.1801C114.588 71.9733 115.027 74.4154 113.718 77.087Z" fill="#B4874C"/>
<path d="M40.2202 119.689C37.9287 117.915 37.0111 115.703 38.3155 113.371C39.6241 111.054 42.0419 110.514 44.51 111.969C46.9877 113.429 47.7233 115.859 46.4296 118.174C45.1444 120.518 42.8031 120.773 40.2202 119.689Z" fill="#B4874C"/>
<path d="M58.0379 141C55.7901 139.241 54.8629 137.023 56.1726 134.682C57.4865 132.356 59.9288 131.82 62.4022 133.265C64.8895 134.732 65.6293 137.177 64.3399 139.506C63.0387 141.877 60.6922 142.141 58.0379 141Z" fill="#B4874C"/>
<path d="M123.356 119.016C125.336 120.695 126.099 122.836 124.877 125.206C123.764 127.349 120.275 127.949 118.272 126.329C116.065 124.545 115.49 122.288 116.817 119.983C117.939 118.004 121.115 117.555 123.356 119.016Z" fill="#B4874C"/>
<path d="M49.9343 79.0685C48.1429 81.1835 45.9288 81.8231 43.5216 80.2467C41.1336 78.6822 40.4772 76.2529 41.8852 74.0108C43.288 71.7778 45.7247 71.3373 48.1329 72.8898C50.5603 74.4542 50.8621 76.7743 49.9343 79.0685Z" fill="#B4874C"/>
<path d="M108.575 58.2715C110.819 60.0162 111.736 62.2277 110.413 64.548C109.104 66.8652 106.677 67.3983 104.214 65.9349C101.742 64.4655 101.016 62.0415 102.309 59.7273C103.614 57.3952 105.945 57.1339 108.575 58.2715Z" fill="#B4874C"/>
<path d="M83.3686 58.2737C81.7762 60.3404 79.608 61.0574 77.1316 59.5976C74.6701 58.1347 73.9338 55.7295 75.2216 53.4252C76.5146 51.1118 78.9257 50.582 81.383 52.0299C83.8646 53.4808 84.3251 55.7765 83.3686 58.2737Z" fill="#B4874C"/>
<path d="M91.4333 146.057C89.6854 148.076 87.4553 148.743 85.0289 147.154C82.6216 145.578 81.9566 143.119 83.3754 140.859C84.7984 138.613 87.2606 138.152 89.6828 139.725C92.1199 141.296 92.4899 143.634 91.4333 146.057Z" fill="#B4874C"/>
<path d="M126.462 79.5773C128.71 81.3368 129.637 83.5543 128.328 85.8954C127.014 88.2216 124.571 88.7577 122.094 87.2973C119.607 85.831 118.872 83.3772 120.171 81.054C121.462 78.7011 123.808 78.4368 126.462 79.5773Z" fill="#B4874C"/>
<path d="M41.728 99.8258C44.0377 101.746 44.8659 103.976 43.4421 106.222C42.0386 108.456 39.6048 108.912 37.1953 107.359C34.8006 105.802 34.1534 103.378 35.543 101.123C36.9583 98.8474 39.2985 98.7264 41.728 99.8258Z" fill="#B4874C"/>
<path d="M124.899 99.4667C122.652 97.7071 121.73 95.4807 123.049 93.1455C124.363 90.8194 126.805 90.2832 129.292 91.7496C131.78 93.2159 132.505 95.6638 131.215 97.9929C129.895 100.352 127.539 100.61 124.899 99.4667Z" fill="#B4874C"/>
<path d="M71.2964 61.1057C69.6625 63.2202 67.4889 63.9463 65.0179 62.4775C62.5564 61.0146 61.8254 58.6004 63.1132 56.296C64.4062 53.9827 66.812 53.4618 69.2745 54.9008C71.7754 56.3635 72.2008 58.6743 71.2964 61.1057Z" fill="#B4874C"/>
<path d="M103.551 143.192C101.834 145.181 99.6969 145.758 97.1887 144.352C94.9105 143.088 94.0393 139.607 95.5435 137.755C97.203 135.73 99.5385 135.239 101.904 136.863C104.255 138.491 104.616 140.799 103.551 143.192Z" fill="#B4874C"/>
<path d="M132.207 104.25C134.457 105.962 135.032 107.998 133.592 110.16C132.127 112.343 129.951 112.541 127.672 110.946C125.531 109.449 125.074 107.412 126.337 105.349C127.701 103.115 129.779 102.906 132.207 104.25Z" fill="#B4874C"/>
<path d="M109.572 141.262C107.206 139.503 106.531 137.502 107.883 135.31C109.235 133.118 111.341 132.73 113.684 134.217C116.037 135.711 116.575 137.81 115.267 140.017C113.917 142.271 111.832 142.403 109.572 141.262Z" fill="#B4874C"/>
<path d="M34.3992 94.9447C32.1985 93.2388 31.6368 91.2232 33.085 89.0906C34.5492 86.9312 36.6996 86.7541 38.9546 88.3465C41.0806 89.8467 41.4995 91.8598 40.2334 93.8843C38.8598 96.1121 36.8031 96.2859 34.3992 94.9447Z" fill="#B4874C"/>
<path d="M123.414 67.8765C125.672 69.5076 126.363 71.5049 124.985 73.7177C123.592 75.9335 121.476 76.2299 119.144 74.7005C116.966 73.2661 116.433 71.2683 117.624 69.1725C118.921 66.8973 120.954 66.5863 123.414 67.8765Z" fill="#B4874C"/>
<path d="M53.2303 65.2073C50.8166 63.5289 50.0558 61.5617 51.3857 59.3192C52.7198 57.0915 54.7955 56.7088 57.1579 58.2083C59.353 59.5919 59.9317 61.5567 58.8041 63.6792C57.5744 65.996 55.5519 66.289 53.2303 65.2073Z" fill="#B4874C"/>
<path d="M79.0172 148.651C77.3354 150.846 75.2849 151.232 72.9817 149.634C70.6402 148.013 70.2874 145.845 71.7489 143.734C73.1264 141.742 75.176 141.491 77.3746 142.889C79.7927 144.448 80.0518 146.508 79.0172 148.651Z" fill="#B4874C"/>
<path d="M43.3179 131.457C40.9126 129.698 40.2572 127.686 41.6639 125.491C43.0758 123.287 45.2007 123.02 47.5217 124.568C49.6893 126.02 50.1828 128.018 48.9827 130.108C47.6645 132.419 45.5982 132.587 43.3179 131.457Z" fill="#B4874C"/>
<path d="M94.9935 55.3605C93.4223 57.3914 91.406 57.7858 89.1125 56.194C86.7903 54.5844 86.4406 52.4553 87.8915 50.3622C89.2583 48.3886 91.2833 48.1345 93.4521 49.5387C95.8371 51.0645 96.176 53.1012 94.9935 55.3605Z" fill="#B4874C"/>
<path d="M121.77 137.932C119.869 136.228 119.204 134.32 120.525 132.513C121.804 130.754 123.877 130.443 125.832 131.923C127.582 133.239 128.049 135.172 126.933 136.897C125.713 138.779 123.759 138.845 121.77 137.932Z" fill="#B4874C"/>
<path d="M31.9265 82.5198C30.0531 81.1023 29.3893 79.2811 30.5809 77.3822C31.6619 75.6478 33.5501 75.2716 35.4447 76.4324C37.5024 77.6941 38.0566 79.656 36.8745 81.5608C35.7892 83.2803 33.9819 83.498 31.9265 82.5198Z" fill="#B4874C"/>
<path d="M120.194 56.1163C121.937 57.3551 122.745 59.0447 121.874 60.9336C120.911 62.9989 118.952 63.5394 116.845 62.3823C114.719 61.2134 114.118 59.1979 115.233 57.2514C116.257 55.4575 118.077 55.198 120.194 56.1163Z" fill="#B4874C"/>
<path d="M136.324 121.766C135.032 123.503 133.212 124.142 131.139 122.907C129.076 121.679 128.51 119.649 129.614 117.721C130.637 115.952 132.566 115.528 134.485 116.557C136.611 117.701 137.058 119.621 136.324 121.766Z" fill="#B4874C"/>
<path d="M44.6585 61.3622C46.3881 62.5802 47.187 64.2399 46.3213 66.1198C45.3694 68.1671 43.4344 68.7105 41.3375 67.5594C39.2363 66.3933 38.6235 64.4197 39.7384 62.4734C40.7672 60.6944 42.5522 60.426 44.6585 61.3622Z" fill="#B4874C"/>
<path d="M51.5269 141.988C50.2355 143.702 48.4163 144.316 46.3787 143.067C44.3506 141.823 43.7934 139.823 44.9207 137.922C45.9576 136.173 47.8706 135.776 49.7698 136.817C51.8659 137.968 52.3144 139.864 51.5269 141.988Z" fill="#B4874C"/>
<path d="M106.793 52.0159C105.628 53.6487 103.932 54.2538 101.964 53.2189C99.8082 52.0802 99.1126 50.0924 100.183 48.1317C101.25 46.1561 103.272 45.7528 105.337 47.044C107.215 48.2313 107.593 50.0471 106.793 52.0159Z" fill="#B4874C"/>
<path d="M61.3025 152.333C59.4512 150.856 58.7299 148.999 59.911 147.118C61.0814 145.255 63.1158 144.92 65.1118 146.242C66.9257 147.45 67.467 149.368 66.4733 151.132C65.3828 153.081 63.4762 153.311 61.3025 152.333Z" fill="#B4874C"/>
<path d="M100.662 155.424C98.8191 154.087 98.3194 152.454 99.5015 150.659C100.573 149.029 102.21 148.767 103.983 149.89C105.958 151.137 106.355 152.854 105.193 154.637C104.13 156.296 102.528 156.433 100.662 155.424Z" fill="#B4874C"/>
<path d="M137.712 77.623C139.744 79.016 140.354 80.5957 139.234 82.4407C138.225 84.0972 136.638 84.4515 134.833 83.383C132.85 82.2166 132.357 80.5499 133.433 78.7141C134.448 77.0247 136.025 76.8853 137.712 77.623Z" fill="#B4874C"/>
<path d="M91.9432 152.778C93.6611 154.037 94.2245 155.563 93.2479 157.277C92.1862 159.133 90.5004 159.5 88.5355 158.259C86.7528 157.13 86.2862 155.529 87.2383 153.813C88.3011 151.933 89.9614 151.698 91.9432 152.778Z" fill="#B4874C"/>
<path d="M140.628 89.7217C142.66 91.1148 143.275 92.7094 142.149 94.5633C141.135 96.2289 139.543 96.5921 137.719 95.5117C135.726 94.3394 135.219 92.6519 136.315 90.804C137.321 89.1087 138.908 88.9514 140.628 89.7217Z" fill="#B4874C"/>
<path d="M79.2646 45.5741C78.1136 47.1174 76.5934 47.537 74.7964 46.412C72.8172 45.1743 72.4306 43.4391 73.6294 41.7047C74.7239 40.102 76.3859 39.9296 78.1265 41.1054C79.8863 42.2932 80.1376 43.8587 79.2646 45.5741Z" fill="#B4874C"/>
<path d="M29.1331 103.87C30.8009 105.147 31.3196 106.683 30.2801 108.369C29.13 110.22 27.377 110.435 25.5005 109.089C23.7667 107.856 23.495 106.192 24.5856 104.574C25.7114 102.941 27.3068 102.837 29.1331 103.87Z" fill="#B4874C"/>
<path d="M136.287 70.103C135.25 71.5205 133.789 72.0384 132.131 71.1219C130.285 70.1015 129.77 68.3847 130.783 66.7196C131.696 65.225 133.323 64.9333 134.954 65.9185C136.599 66.9246 136.881 68.4602 136.287 70.103Z" fill="#B4874C"/>
<path d="M91.2284 42.5276C90.1264 43.8558 88.6618 44.3587 87.0556 43.3764C85.2865 42.2932 84.8062 40.5614 85.89 38.9767C86.8525 37.5744 88.4898 37.2887 90.0726 38.3546C91.6458 39.4146 91.8842 40.9353 91.2284 42.5276Z" fill="#B4874C"/>
<path d="M31.9031 115.902C33.6176 117.123 34.2205 118.649 33.2386 120.371C32.1663 122.246 30.4432 122.565 28.5103 121.27C26.735 120.085 26.3835 118.445 27.4165 116.791C28.4655 115.111 30.0396 114.932 31.9031 115.902Z" fill="#B4874C"/>
<path d="M112.875 152.398C111.291 151.111 110.7 149.543 111.796 147.916C112.771 146.472 114.38 146.168 115.981 147.183C117.749 148.315 118.201 150.006 117.13 151.636C116.154 153.104 114.602 153.223 112.875 152.398Z" fill="#B4874C"/>
<path d="M25.8352 91.7291C27.4457 92.9715 28.0955 94.4409 27.2795 95.9717C26.3773 97.6699 24.6517 98.0366 22.9081 96.908C21.3415 95.9013 20.9302 94.273 21.8091 92.7689C22.7093 91.2289 24.2774 91.1939 25.8352 91.7291Z" fill="#B4874C"/>
<path d="M62.7393 49.4163C60.9094 48.0135 60.3555 46.4932 61.3748 44.8187C62.4952 42.9736 64.2345 42.7382 66.1122 44.0603C67.8323 45.2724 68.1295 46.9158 67.0633 48.5368C65.9759 50.1937 64.3696 50.2049 62.7393 49.4163Z" fill="#B4874C"/>
<path d="M140.395 107.305C138.932 105.946 138.376 104.363 139.567 102.819C140.601 101.473 142.239 101.211 143.776 102.31C145.448 103.516 145.841 105.219 144.68 106.757C143.639 108.136 142.078 108.225 140.395 107.305Z" fill="#B4874C"/>
<path d="M35.8797 132.596C34.72 133.888 33.2531 134.329 31.6341 133.302C30.0246 132.28 29.5391 130.668 30.4228 129.155C31.4076 127.473 33.1396 127.16 34.8642 128.362C36.4077 129.429 36.6292 131 35.8797 132.596Z" fill="#B4874C"/>
<path d="M79.5244 155.663C81.2458 157.072 81.8626 158.619 80.8059 160.246C79.8609 161.685 78.2557 162.003 76.6592 161.003C74.8997 159.901 74.4511 158.225 75.4737 156.589C76.4102 155.121 77.9868 155.116 79.5244 155.663Z" fill="#B4874C"/>
<path d="M54.858 51.2356C53.6782 52.5402 52.1912 52.9925 50.5946 51.9057C49.0214 50.8458 48.5912 49.2063 49.5473 47.7265C50.5077 46.2615 52.1406 45.9609 53.7383 47.0238C55.3211 48.0897 55.5532 49.6433 54.858 51.2356Z" fill="#B4874C"/>
<path d="M138.273 133.352C137.232 134.731 135.912 135.078 134.427 134.134C132.943 133.19 132.542 131.765 133.391 130.378C134.24 128.991 135.66 128.718 137.15 129.653C138.65 130.594 138.885 131.966 138.273 133.352Z" fill="#B4874C"/>
<path d="M68.3169 162.382C67.467 163.683 66.396 164.074 65.1241 163.434C63.669 162.705 63.1623 161.459 63.9015 160.102C64.6353 158.754 65.9055 158.535 67.2947 159.42C68.5401 160.215 68.6378 161.355 68.3169 162.382Z" fill="#B4874C"/>
<path d="M48.6286 150.659C49.7796 149.226 51.1189 149.001 52.5452 150.043C54.0003 151.104 54.1738 152.535 53.2015 153.821C52.3388 154.967 51.0315 155.138 49.6915 154.259C48.1789 153.274 48.0354 151.946 48.6286 150.659Z" fill="#B4874C"/>
<path d="M38.1732 144.175C37.2861 145.317 36.129 145.655 34.7709 144.741C33.6045 143.945 33.2821 142.764 33.9468 141.643C34.7072 140.361 35.9729 140.127 37.3172 141.021C38.5038 141.805 38.6802 142.944 38.1732 144.175Z" fill="#B4874C"/>
<path d="M102.666 39.2408C101.838 40.2609 100.744 40.6254 99.5211 39.8805C98.1258 39.0287 97.7799 37.7112 98.6606 36.4911C99.4105 35.4475 100.64 35.2526 101.834 36.0901C103.005 36.9008 103.187 38.0309 102.666 39.2408Z" fill="#B4874C"/>
<path d="M117.911 48.6056C116.783 50.0653 115.429 50.183 114.003 49.1165C112.716 48.148 112.498 46.8359 113.34 45.6158C114.313 44.1955 115.724 44.1372 117.149 45.2037C118.456 46.1603 118.543 47.428 117.911 48.6056Z" fill="#B4874C"/>
<path d="M132.756 57.6243C131.678 58.8689 130.46 59.1323 129.178 58.155C128.088 57.3202 127.787 56.104 128.543 55.0276C129.389 53.7987 130.676 53.6394 131.968 54.5989C133.099 55.4335 133.156 56.5968 132.756 57.6243Z" fill="#B4874C"/>
<path d="M42.1451 53.6467C41.3366 54.6786 40.237 55.0521 39.0184 54.3221C37.6123 53.4883 37.2611 52.1796 38.1185 50.9327C38.8545 49.8682 40.0789 49.6822 41.2794 50.4869C42.4693 51.3095 42.6511 52.4397 42.1451 53.6467Z" fill="#B4874C"/>
<path d="M147.286 118.026C146.339 119.401 145.203 119.727 143.803 118.86C142.585 118.106 142.201 116.986 142.77 115.805C143.405 114.47 144.58 114.057 146.038 114.825C147.501 115.608 147.704 116.813 147.286 118.026Z" fill="#B4874C"/>
<path d="M33.1263 68.7861C32.2168 70.0989 30.9478 70.4043 29.4457 69.4007C28.1109 68.5129 27.7863 67.2697 28.5319 65.9903C29.3785 64.5405 30.7083 64.3094 32.2157 65.3041C33.5654 66.1889 33.8026 67.4025 33.1263 68.7861Z" fill="#B4874C"/>
<path d="M23.6697 83.6903C22.8282 84.6896 21.7244 85.0482 20.5175 84.2764C19.1381 83.3977 18.8071 82.0771 19.707 80.8688C20.4708 79.846 21.7196 79.6629 22.8935 80.5124C24.0482 81.3501 24.2343 82.4951 23.6697 83.6903Z" fill="#B4874C"/>
<path d="M128.738 148.171C127.902 149.382 126.76 149.717 125.36 148.851C124.142 148.097 123.758 146.976 124.327 145.796C124.962 144.46 126.142 144.038 127.595 144.815C129.024 145.589 129.341 146.779 128.738 148.171Z" fill="#B4874C"/>
</g>
</svg>
