<svg width="1658" height="607" viewBox="0 0 1658 607" fill="none" xmlns="http://www.w3.org/2000/svg">
<path d="M778.362 502.065C776.64 501.848 774.928 501.568 773.224 501.228C764.539 499.49 755.314 493.832 745.026 483.935C735.825 475.084 725.913 462.958 714.721 446.864C693.845 416.84 671.784 377.686 648.425 336.23C621.311 288.112 593.274 238.353 564.231 197.753C531.294 151.71 502.238 125.142 475.403 116.524C394.786 90.6375 274.782 132.908 178.357 166.874C142.57 179.479 108.766 191.387 82.3197 197.777C52.954 204.874 35.0899 204.591 26.0983 196.887L26.6867 196.199C35.4397 203.698 53.0493 203.919 82.1067 196.898C108.508 190.518 142.291 178.618 178.056 166.019C263.46 135.935 367.351 99.3411 446.193 109.277C456.488 110.575 466.338 112.662 475.68 115.662C489.986 120.257 505.161 130.079 520.785 144.859C534.773 158.09 549.225 175.22 564.967 197.228C594.039 237.868 622.09 287.646 649.215 335.787C672.563 377.223 694.615 416.358 715.466 446.346C726.622 462.393 736.497 474.474 745.655 483.282C755.816 493.056 764.893 498.636 773.404 500.341C800.168 505.696 828.072 495.699 858.709 469.777C885.689 446.948 910.853 415.481 935.188 385.047L935.57 384.568C962.941 350.339 995.626 310.673 1030.53 275.995C1066.73 240.029 1101.11 213.583 1135.65 195.143C1172.15 175.65 1210 163.587 1248.14 159.289C1285.14 155.12 1321.42 158.344 1355.97 168.868C1370.45 173.28 1384.51 179.147 1397.74 186.303C1410.47 193.189 1422.84 201.489 1434.52 210.973C1456.54 228.856 1476.5 251.02 1495.54 278.735C1533.74 334.327 1561.94 404.124 1584.49 465.07L1583.64 465.385C1538 342.034 1478.98 207.287 1355.7 169.733C1285.67 148.401 1207.67 157.707 1136.07 195.94C1057.95 237.653 991.982 315.469 936.274 385.134L935.89 385.612C911.528 416.079 886.337 447.584 859.288 470.468C844.613 482.883 830.941 491.467 817.485 496.707C804.226 501.874 791.088 503.669 778.362 502.065Z" fill="url(#paint0_linear_365_2850)"/>
<path d="M778.776 492.67C775.437 492.249 772.108 491.611 768.781 490.754C759.346 488.322 749.333 482.427 738.17 472.732C728.178 464.056 717.427 452.455 705.3 437.269C682.679 408.942 658.844 372.606 633.61 334.14C606.052 292.128 577.555 248.684 548.158 211.937C525.123 183.14 494.755 148.524 464.153 136.335C396.562 109.413 302.467 129.648 219.337 152.991C205.166 156.969 191.247 161.056 177.785 165.007C144.817 174.683 113.674 183.822 88.6587 188.418C60.8177 193.533 43.2257 192.538 33.2964 185.288L33.7984 184.599C43.5249 191.702 60.9087 192.648 88.5043 187.579C113.476 182.992 144.597 173.859 177.544 164.189C191.008 160.237 204.932 156.153 219.105 152.171C254.964 142.102 301.999 129.908 347.799 124.956C370.207 122.534 390.92 122.038 409.364 123.48C429.858 125.084 448.398 129.141 464.467 135.543C477.7 140.814 491.476 150.255 506.585 164.405C519.205 176.222 532.624 191.158 548.823 211.405C578.247 248.185 606.754 291.644 634.324 333.673C659.546 372.125 683.369 408.443 705.967 436.738C731.314 468.479 751.342 485.381 768.994 489.93C819.222 502.872 863.644 462.904 900.476 422.103C911.609 409.714 922.324 396.798 932.346 384.632C971.294 337.285 1006.7 295.301 1045.64 260.978C1059.88 248.481 1074.55 237.313 1089.24 227.781C1103.89 218.278 1119.09 210.067 1134.41 203.369C1156.49 193.715 1179.45 186.607 1202.63 182.237C1227.22 177.54 1252.2 176.133 1276.89 178.058C1301 179.939 1324.97 185.006 1348.14 193.118C1363.3 198.391 1378.14 205.215 1392.24 213.402C1405.62 221.169 1418.8 230.436 1431.43 240.945C1457.17 262.317 1480.79 288.575 1503.65 321.217C1522.98 348.834 1542.02 381.506 1561.83 421.101C1570.53 438.468 1578.86 455.764 1586.59 472.511L1585.82 472.869C1578.09 456.132 1569.76 438.843 1561.07 421.484C1518.55 336.529 1478.4 281.052 1430.88 241.602C1404.78 219.87 1377.62 204.274 1347.85 193.924C1300.58 177.366 1251.78 173.717 1202.79 183.076C1179.67 187.433 1156.78 194.524 1134.75 204.151C1103.83 217.668 1074.87 236.466 1046.2 261.619C1007.31 295.9 971.929 337.857 933.004 385.173C922.975 397.348 912.253 410.27 901.108 422.673C876.906 449.486 856.632 467.235 837.307 478.527C816.999 490.394 797.749 495.061 778.776 492.67Z" fill="url(#paint1_linear_365_2850)"/>
<path d="M779.546 483.61C774.474 482.971 769.416 481.861 764.344 480.278C753.89 477.012 742.803 470.716 730.445 461.021C719.378 452.339 707.475 441.061 694.057 426.545C669.028 399.465 642.706 365.414 614.842 329.364C589.334 296.364 562.96 262.242 535.916 231.401C506.608 197.974 480.132 169.239 452.908 156.139C385.927 123.909 294.634 137.148 222.585 152.283C206.749 155.611 191.178 159.182 176.12 162.637C115.861 176.462 63.8184 188.401 40.4962 173.676L40.9238 172.998C63.9652 187.543 115.855 175.64 175.94 161.855C191.002 158.4 206.577 154.827 222.421 151.499C270.517 141.396 308.877 136.357 343.145 135.639C364.093 135.2 383.573 136.467 401.046 139.401C420.333 142.639 437.9 148.028 453.256 155.417C465.752 161.43 479.202 171.366 494.376 185.791C507.418 198.19 520.658 212.78 536.521 230.875C563.58 261.734 589.962 295.868 615.478 328.876C643.333 364.911 669.64 398.949 694.647 426.003C722.721 456.377 744.944 473.383 764.587 479.515C805.417 492.264 846.127 474.343 896.583 421.408C908.276 409.142 919.514 396.024 929.128 384.692C931.794 381.54 934.458 378.389 937.118 375.237C970.732 335.444 1005.49 294.297 1043.61 262.406C1071.36 239.19 1100.66 222.57 1133.18 211.597C1154.48 204.411 1176.19 199.692 1199.56 197.166C1223.15 194.616 1247.23 195.115 1271.13 198.648C1294.27 202.065 1317.54 208.364 1340.31 217.369C1369.13 228.77 1396.12 244.772 1422.8 266.289C1449.18 287.442 1473.79 312.352 1498.03 342.441C1518.75 368.165 1539.36 397.945 1561.03 433.486C1569.91 448.033 1579.4 463.731 1588.7 479.952L1588.01 480.35C1578.71 464.136 1569.22 448.446 1560.35 433.904C1513.9 357.737 1471.33 306.235 1422.3 266.914C1395.68 245.447 1368.76 229.485 1340.01 218.114C1293.47 199.707 1246.25 192.927 1199.65 197.964C1176.33 200.483 1154.68 205.191 1133.44 212.359C1101.01 223.298 1071.8 239.872 1044.12 263.022C1006.06 294.87 971.32 335.99 937.73 375.756C935.068 378.908 932.406 382.06 929.737 385.213C920.115 396.554 908.87 409.679 897.161 421.962C873.059 447.25 852.51 463.625 832.489 473.502C814.354 482.445 796.899 485.797 779.546 483.61Z" fill="url(#paint2_linear_365_2850)"/>
<path d="M780.96 474.977C773.968 474.096 766.967 472.37 759.914 469.802C747.69 465.349 734.704 458.17 720.219 447.855C707.236 438.61 693.266 426.987 677.507 412.322C648.107 384.961 617.165 351.358 584.407 315.784C564.704 294.386 544.331 272.261 523.677 250.862C519.676 246.717 515.687 242.538 511.826 238.498C487.506 213.033 464.533 188.983 441.67 175.939C391.33 147.222 320.73 139.25 225.836 151.568C207.984 153.884 190.386 156.703 173.368 159.425C119.108 168.11 72.2451 175.611 47.6923 162.054L48.0531 161.4C72.382 174.832 119.126 167.351 173.249 158.687C190.272 155.963 207.874 153.145 225.738 150.826C268.79 145.238 305.665 143.781 338.472 146.37C357.95 147.907 376.2 150.937 392.72 155.375C410.794 160.231 427.387 166.931 442.039 175.289C464.998 188.387 488.007 212.476 512.366 237.98C516.224 242.019 520.214 246.197 524.212 250.341C544.872 271.747 565.249 293.876 584.955 315.276C617.702 350.84 648.634 384.432 678.014 411.775C711.015 442.487 737.12 460.703 760.165 469.097C802.506 484.519 843.375 469.596 892.684 420.713C904.478 409.021 915.619 396.519 925.899 384.752C931.166 378.703 936.49 372.532 941.639 366.564C973.036 330.171 1005.5 292.54 1041.57 263.834C1056.2 252.191 1071.03 242.891 1086.9 235.4C1101.1 228.7 1115.83 223.605 1131.94 219.826C1152.12 215.091 1173.23 212.563 1196.48 212.095C1240.64 211.206 1286.39 221.139 1332.47 241.615C1360.02 253.863 1386.75 270.224 1414.17 291.63C1464.53 330.661 1510.94 379.672 1560.23 445.869C1562 448.247 1563.77 450.624 1565.55 453.005C1573.88 464.18 1582.5 475.736 1590.8 487.39L1590.19 487.824C1581.9 476.177 1573.28 464.625 1564.95 453.452C1563.17 451.071 1561.4 448.694 1559.63 446.315C1510.39 380.175 1464.02 331.21 1413.71 292.22C1386.34 270.85 1359.67 254.522 1332.17 242.3C1286.19 221.869 1240.55 211.958 1196.5 212.845C1173.3 213.313 1152.24 215.834 1132.12 220.558C1098.29 228.493 1069.67 242.432 1042.04 264.422C1006.03 293.085 973.585 330.69 942.209 367.056C937.059 373.023 931.736 379.195 926.467 385.245C916.176 397.022 905.024 409.536 893.214 421.245C869.469 444.785 848.025 460.208 827.654 468.395C811.872 474.738 796.442 476.928 780.96 474.977Z" fill="url(#paint3_linear_365_2850)"/>
<path d="M783.195 466.872C774.066 465.722 764.858 463.209 755.483 459.327C685.631 430.407 600.182 353.421 511.433 270.325C502.007 261.501 492.952 252.441 484.193 243.68C465.568 225.046 447.974 207.447 430.431 195.748C380.977 162.768 313.234 147.666 229.08 150.859C208.873 151.627 188.852 153.348 169.491 155.011C145.833 157.045 123.488 158.967 103.915 158.849C81.9785 158.719 66.3976 156.046 54.8816 150.437L55.1863 149.811C80.1864 161.989 121.545 158.434 169.432 154.317C188.803 152.653 208.831 150.93 229.056 150.163C313.359 146.964 381.241 162.106 430.819 195.167C448.419 206.903 466.037 224.528 484.689 243.188C493.443 251.946 502.494 261.001 511.912 269.817C600.614 352.869 686.009 429.809 755.753 458.683C799.775 476.91 840.806 464.987 888.796 420.022C901.212 408.39 912.895 395.699 922.685 384.817C929.729 376.955 936.812 368.894 943.663 361.097C973.648 326.971 1004.65 291.683 1039.55 265.266C1067.2 244.333 1096.17 232.511 1130.71 228.063C1149.9 225.594 1169.83 225.265 1193.41 227.028C1214.86 228.634 1237.13 232.901 1259.61 239.717C1280.61 246.08 1302.48 254.877 1324.64 265.864C1350.63 278.755 1376.34 294.994 1405.55 316.972C1433.65 338.112 1460.23 360.352 1486.83 384.963C1511.21 407.532 1534.96 431.506 1559.42 458.257C1563.24 462.431 1567.15 466.66 1570.93 470.746C1578.17 478.579 1585.67 486.681 1592.91 494.835L1592.39 495.296C1585.15 487.147 1577.66 479.048 1570.42 471.218C1566.64 467.129 1562.73 462.902 1558.91 458.726C1508.61 403.724 1458.31 357.539 1405.13 317.528C1375.95 295.577 1350.28 279.359 1324.33 266.486C1278.05 243.534 1235.21 230.854 1193.36 227.722C1169.82 225.959 1149.94 226.287 1130.8 228.751C1096.38 233.183 1067.51 244.961 1039.96 265.818C1005.12 292.194 974.144 327.453 944.182 361.554C937.331 369.353 930.246 377.415 923.199 385.281C913.398 396.173 901.702 408.878 889.268 420.529C865.522 442.775 843.788 456.748 822.823 463.238C809.613 467.332 796.491 468.548 783.195 466.872Z" fill="url(#paint4_linear_365_2850)"/>
<path d="M786.354 459.413C774.901 457.969 763.194 454.457 751.06 448.852C708.375 429.138 669.943 408.782 633.567 386.624C586.651 358.045 542.696 326.37 499.19 289.786C485.037 277.884 472.013 264.985 459.419 252.509C445.501 238.724 432.356 225.702 419.2 215.552C357.298 167.798 283.411 153.624 232.327 150.142C209.437 148.582 186.54 148.78 164.394 148.97C144.041 149.147 124.816 149.312 107.436 148.085C87.9102 146.705 73.4927 143.759 62.0642 138.813L62.3211 138.223C87.2042 148.995 124.696 148.67 164.391 148.327C186.548 148.136 209.459 147.937 232.371 149.499C266.306 151.812 298.823 158.022 329.019 167.956C363.198 179.202 393.673 195.044 419.593 215.041C432.78 225.215 445.939 238.25 459.872 252.048C472.458 264.514 485.471 277.405 499.604 289.29C600.607 374.223 691.641 420.697 751.327 448.265C797.799 469.73 837.745 461.077 884.896 419.33C897.943 407.779 910.219 394.85 919.458 384.877C927.82 375.811 936.184 366.449 944.272 357.396C973.295 324.914 1003.31 291.326 1037.51 266.695C1052.72 255.743 1068.1 248.002 1084.54 243.026C1098.43 238.819 1113.13 236.621 1129.47 236.302C1152.62 235.851 1174.16 239.091 1190.33 241.967C1229.07 248.851 1270.43 264.6 1316.8 290.113C1347.3 306.893 1375.64 326.827 1396.92 342.317C1458.69 387.269 1511.58 429.249 1558.62 470.652C1563.9 475.305 1569.33 479.971 1574.57 484.482C1581.3 490.27 1588.26 496.258 1595.01 502.286L1594.58 502.766C1587.84 496.741 1580.88 490.755 1574.15 484.969C1568.91 480.458 1563.48 475.792 1558.19 471.134C1511.18 429.745 1458.3 387.779 1396.55 342.837C1375.28 327.356 1346.95 307.44 1316.49 290.676C1270.19 265.196 1228.88 249.471 1190.22 242.598C1174.07 239.729 1152.58 236.493 1129.49 236.945C1094.73 237.623 1065.63 247.243 1037.89 267.219C1003.74 291.807 973.756 325.369 944.754 357.826C936.663 366.881 928.297 376.245 919.932 385.316C910.682 395.301 898.39 408.244 885.323 419.812C861.535 440.872 839.516 453.379 818.004 458.039C807.585 460.302 797.081 460.764 786.354 459.413Z" fill="url(#paint5_linear_365_2850)"/>
<path d="M790.275 452.752C787.028 452.343 783.75 451.766 780.421 451.018C769.688 448.609 758.636 444.475 746.637 438.378C722.148 425.938 696.359 415.661 669.056 404.78C641.042 393.618 612.074 382.073 581.681 367.092C547.177 350.083 516.189 331.16 486.947 309.242C468.395 295.338 452.112 278.856 436.363 262.915C426.552 252.984 417.286 243.605 407.973 235.358C358.845 191.86 297.62 161.34 235.576 149.422C209.695 144.45 183.38 142.637 157.928 140.884C124.589 138.587 93.0999 136.418 69.2492 127.19L69.4625 126.638C93.2304 135.835 124.677 138.001 157.968 140.294C183.438 142.049 209.774 143.865 235.688 148.841C265.473 154.563 295.259 164.633 324.22 178.774C354.9 193.755 383.21 212.643 408.366 234.915C417.696 243.175 426.968 252.562 436.787 262.498C452.52 278.424 468.789 294.891 487.303 308.767C552.675 357.764 614.622 382.449 669.278 404.229C696.594 415.113 722.395 425.394 746.906 437.849C796.02 462.8 834.87 457.234 881.003 418.641C894.582 407.283 906.965 394.664 916.239 384.942C925.634 375.043 934.985 364.745 944.027 354.784C972.369 323.564 1001.67 291.282 1035.48 268.13C1051.04 257.471 1066.7 250.504 1083.35 246.827C1097.2 243.767 1111.89 243.02 1128.24 244.544C1149.45 246.523 1169.98 251.901 1187.25 256.904C1206.57 262.498 1226.47 270.299 1248.08 280.754C1266.5 289.667 1286.42 300.66 1308.97 314.361C1335.44 330.442 1361.46 348.764 1386.63 366.483L1388.31 367.661C1421.35 390.92 1453.26 412.322 1484.12 433.016C1509.77 450.215 1533.99 466.463 1557.82 483.048C1564.36 487.601 1571.06 492.098 1577.54 496.445C1583.98 500.764 1590.64 505.232 1597.12 509.739L1596.78 510.226C1590.31 505.722 1583.65 501.256 1577.21 496.938C1570.73 492.587 1564.02 488.088 1557.48 483.533C1533.66 466.948 1509.44 450.703 1483.79 433.506C1452.93 412.809 1421.02 391.407 1387.97 368.143L1386.29 366.965C1361.13 349.251 1335.11 330.935 1308.66 314.865C1260.4 285.544 1222.91 267.843 1187.09 257.472C1169.84 252.476 1149.35 247.105 1128.18 245.133C1092.83 241.838 1064.34 249.082 1035.82 268.617C1002.07 291.731 972.785 323.988 944.467 355.181C935.423 365.144 926.071 375.445 916.671 385.348C907.387 395.082 894.988 407.715 881.386 419.093C869.214 429.275 857.767 436.949 846.386 442.551C835.145 448.084 824.292 451.44 813.206 452.805C805.604 453.747 798.034 453.73 790.275 452.752Z" fill="url(#paint6_linear_365_2850)"/>
<path d="M794.389 446.859C788.349 446.098 782.192 444.736 775.804 442.754C765.486 439.551 754.498 434.695 742.218 427.908C708.988 409.541 673.45 400.931 635.828 391.815C610.796 385.75 584.913 379.478 558.051 369.962C527.629 359.183 500.366 345.686 474.703 328.703C451.824 313.56 432.74 293.217 414.286 273.543C408.238 267.095 402.524 261.006 396.75 255.171C345.877 203.782 289.793 165.971 238.828 148.703C209.725 138.841 179.301 134.539 149.878 130.377C123.14 126.594 97.8882 123.022 76.4302 115.567L76.6061 115.057C98.0139 122.495 123.244 126.064 149.953 129.841C179.4 134.006 209.849 138.313 239 148.191C264.746 156.914 291.786 170.841 319.371 189.583C346.133 207.765 372.293 229.703 397.131 254.79C402.911 260.628 408.625 266.722 414.677 273.173C433.111 292.823 452.173 313.144 474.999 328.252C532.297 366.175 584.994 378.943 635.953 391.291C673.613 400.416 709.185 409.034 742.478 427.437C785.791 451.377 825.262 458.927 877.104 417.958C888.103 409.265 899.178 399.104 913.014 385.012C923.258 374.527 933.398 363.527 943.205 352.892C971.047 322.688 999.839 291.457 1033.44 269.569C1049.39 259.185 1065.32 252.989 1082.15 250.626C1096.03 248.676 1110.7 249.386 1126.99 252.801C1147.43 257.085 1166.44 264.563 1184.16 271.854C1220.99 287.011 1257.55 309.505 1301.12 338.616C1315.73 348.373 1330.46 358.714 1344.71 368.717C1356.1 376.715 1367.89 384.985 1379.68 393.015C1433.64 429.753 1485.99 457.625 1536.61 484.58C1543.32 488.154 1550.26 491.853 1557.01 495.465C1564.73 499.596 1572.62 503.602 1580.25 507.474C1586.48 510.636 1592.93 513.907 1599.22 517.215L1598.97 517.692C1592.68 514.385 1586.24 511.116 1580.01 507.954C1572.37 504.08 1564.48 500.076 1556.76 495.94C1550.01 492.327 1543.07 488.631 1536.36 485.055C1485.72 458.094 1433.36 430.215 1379.38 393.46C1367.58 385.427 1355.8 377.157 1344.4 369.157C1330.15 359.157 1315.42 348.816 1300.82 339.062C1257.28 309.97 1220.74 287.49 1183.95 272.351C1166.26 265.069 1147.27 257.599 1126.88 253.325C1091.56 245.922 1062.83 251.072 1033.74 270.019C1000.19 291.868 971.42 323.075 943.6 353.254C933.792 363.894 923.65 374.896 913.398 385.386C899.545 399.497 888.456 409.672 877.437 418.378C865.035 428.178 853.355 435.291 841.727 440.128C830.51 444.792 819.61 447.218 808.409 447.545C803.775 447.682 799.117 447.455 794.389 446.859Z" fill="url(#paint7_linear_365_2850)"/>
<path d="M798.474 441.763C776.42 438.984 755.537 428.011 737.796 417.434C700.068 394.944 659.646 391.61 616.852 388.078C592.809 386.095 567.946 384.043 542.221 378.522C513.109 372.276 487.017 362.341 462.452 348.154C435.086 332.348 413.517 307.369 392.656 283.213C390.311 280.498 387.887 277.69 385.524 274.979C329.007 210.136 282.088 168.592 242.081 147.972C209.713 131.29 174.286 124.158 140.026 117.263C120.066 113.247 101.212 109.452 83.6016 103.935L83.7469 103.47C101.331 108.977 120.174 112.77 140.12 116.785C174.414 123.686 209.872 130.824 242.302 147.537C264.152 158.798 288.438 176.568 314.487 200.351C336.363 220.323 359.718 244.631 385.89 274.656C388.254 277.367 390.678 280.175 393.023 282.89C413.856 307.014 435.397 331.963 462.693 347.728C517.505 379.387 568.028 383.556 616.888 387.588C659.741 391.125 700.218 394.465 738.043 417.011C785.75 445.449 823.16 454.609 873.202 417.265C884.443 408.877 896.069 398.646 909.786 385.07C920.75 374.17 931.544 362.634 941.982 351.481C969.454 322.122 997.861 291.761 1031.4 270.998C1047.75 260.876 1063.96 255.447 1080.95 254.398C1094.92 253.537 1109.57 255.709 1125.73 261.04C1144.69 267.296 1162.01 276.402 1181.06 286.788C1214.51 305.03 1247.36 329.147 1282.14 354.681C1285.83 357.393 1289.54 360.119 1293.28 362.853C1297.7 366.092 1302.21 369.409 1306.56 372.615C1327.33 387.9 1348.81 403.703 1371.05 418.351C1433.67 459.586 1495.97 484.13 1556.21 507.865C1565.09 511.366 1574.15 514.672 1582.91 517.87C1588.96 520.076 1595.21 522.357 1601.32 524.674L1601.15 525.129C1595.04 522.813 1588.79 520.534 1582.75 518.328C1573.98 515.13 1564.92 511.821 1556.03 508.319C1526.45 496.663 1495.86 484.611 1464.68 470.247C1429.5 454.035 1398.78 437.193 1370.79 418.757C1348.53 404.104 1327.05 388.296 1306.27 373.007C1301.92 369.801 1297.41 366.485 1292.99 363.245C1289.25 360.512 1285.54 357.786 1281.85 355.074C1247.09 329.55 1214.25 305.439 1180.82 287.215C1161.79 276.841 1144.5 267.746 1125.58 261.502C1090.42 249.907 1061.45 252.962 1031.66 271.411C998.174 292.141 969.788 322.477 942.337 351.813C931.894 362.97 921.097 374.51 910.127 385.417C896.392 399.008 884.751 409.253 873.492 417.655C860.846 427.094 848.934 433.644 837.075 437.685C825.877 441.499 814.939 442.994 803.631 442.253C801.909 442.143 800.187 441.977 798.474 441.763Z" fill="url(#paint8_linear_365_2850)"/>
<path d="M801.73 437.359C800.78 437.239 799.83 437.103 798.878 436.949C778.273 433.638 758.541 423.021 733.384 406.964C692.523 380.883 648.807 384.052 602.524 387.409C578.801 389.129 554.273 390.907 528.906 388.892C500.209 386.612 474.467 379.647 450.207 367.604C436.347 360.723 422.819 350.394 408.853 336.028C396.45 323.271 384.987 308.661 374.312 294.79C369.054 287.957 363.703 280.951 358.529 274.175C321.012 225.038 282.217 174.227 245.35 147.24C210.06 121.407 168.437 111.438 128.187 101.799C115.8 98.8333 102.992 95.7663 90.7807 92.3069L90.8996 91.8886C103.102 95.3446 115.905 98.411 128.288 101.377C168.58 111.027 210.245 121.007 245.607 146.889C262.172 159.014 280.544 176.969 301.771 201.784C320.696 223.908 340.105 249.328 358.875 273.911C364.049 280.687 369.397 287.693 374.656 294.525C398.568 325.593 420.774 352.506 450.4 367.215C504.512 394.078 554.321 390.466 602.49 386.973C648.847 383.61 692.635 380.436 733.617 406.596C779.652 435.979 816.334 453.897 869.305 416.583C880.934 408.391 892.774 398.402 906.566 385.139C918.158 373.948 929.508 361.995 940.485 350.435C967.68 321.796 995.801 292.184 1029.37 272.434C1046.13 262.57 1062.62 257.906 1079.77 258.172C1093.86 258.392 1108.48 262.028 1124.47 269.291C1143.74 278.041 1161.86 290.584 1177.85 301.652L1177.96 301.732C1201.97 318.354 1225.46 337.796 1250.34 358.379C1261.7 367.787 1273.46 377.516 1285.44 387.1C1309.2 406.112 1334.97 426.128 1362.44 443.7C1425.03 483.385 1489.44 502.573 1555.42 520.285C1565.53 522.999 1575.81 525.466 1585.75 527.851C1591.56 529.244 1597.56 530.682 1603.44 532.154L1603.34 532.576C1597.45 531.107 1591.45 529.666 1585.65 528.274C1575.7 525.889 1565.42 523.421 1555.31 520.705C1526.34 512.928 1492.65 503.6 1459.33 491.294C1422.83 477.81 1391.06 462.361 1362.21 444.065C1334.71 426.482 1308.93 406.458 1285.16 387.437C1273.18 377.851 1261.43 368.12 1250.06 358.711C1225.2 338.134 1201.71 318.698 1177.71 302.086L1177.6 302.006C1161.63 290.949 1143.52 278.418 1124.29 269.684C1102.64 259.845 1069.26 249.466 1029.59 272.804C996.077 292.522 967.978 322.114 940.802 350.728C929.822 362.29 918.467 374.247 906.869 385.444C893.06 398.721 881.205 408.726 869.558 416.929C845.823 433.658 824.183 440.189 801.73 437.359Z" fill="url(#paint9_linear_365_2850)"/>
<path d="M482.27 398.85C466.808 396.901 452.136 392.986 437.955 387.057C423.729 381.108 410.234 371.404 396.703 357.392C383.28 343.493 371.691 327.228 363.097 314.608C349.205 294.214 335.693 272.372 322.626 251.249C297.069 209.937 272.929 170.917 248.626 146.515C211.296 109.033 164.094 97.2403 114.118 84.7565C108.821 83.4319 103.341 82.064 97.9549 80.6804L98.0496 80.3092C103.436 81.6927 108.913 83.0604 114.211 84.385C138.202 90.3782 163.012 96.5771 185.883 105.816C198.189 110.786 209.005 116.229 218.954 122.453C230.108 129.433 239.904 137.216 248.897 146.245C273.233 170.679 297.384 209.718 322.952 251.051C336.017 272.171 349.527 294.008 363.413 314.397C383.733 344.227 406.842 373.634 438.104 386.706C492.313 409.376 542.078 398.375 590.205 387.733C615.173 382.213 638.757 376.999 661.885 376.778C674.292 376.658 685.469 377.992 696.053 380.854C707.867 384.046 718.706 389.059 729.185 396.18C775.016 427.319 811.215 451.913 865.407 415.902C877.417 407.921 889.474 398.168 903.343 385.21C915.492 373.82 927.328 361.54 938.772 349.66C965.76 321.652 993.664 292.693 1027.33 273.874C1036.15 268.947 1045.08 265.462 1053.87 263.522C1062.02 261.722 1070.34 261.19 1078.59 261.944C1092.83 263.247 1107.43 268.347 1123.2 277.545C1141.66 288.306 1158.73 302.892 1173.78 315.762L1174.85 316.677C1192 331.329 1208.7 347.22 1226.39 364.046C1242.8 379.658 1259.76 395.8 1277.59 411.35C1306.37 436.463 1329.88 454.258 1353.82 469.053C1418.95 509.015 1488.74 522.415 1554.63 532.712C1566.11 534.505 1577.75 536.011 1589.01 537.464C1594.44 538.167 1600.05 538.891 1605.56 539.637L1605.51 540.016C1600 539.269 1594.39 538.544 1588.96 537.841C1577.7 536.386 1566.05 534.882 1554.57 533.088C1522.51 528.078 1488.13 522.098 1453.93 512.361C1415.94 501.542 1383.13 487.481 1353.62 469.376C1329.66 454.57 1306.13 436.761 1277.34 411.636C1259.51 396.078 1242.54 379.932 1226.12 364.32C1208.44 347.499 1191.74 331.611 1174.6 316.967L1173.53 316.052C1158.49 303.194 1141.44 288.62 1123.01 277.877C1088.93 258.011 1058.59 256.844 1027.52 274.21C993.899 292.998 966.011 321.939 939.044 349.927C927.595 361.809 915.758 374.093 903.6 385.488C889.715 398.461 877.644 408.225 865.615 416.22C811.21 452.373 774.916 427.714 728.967 396.497C685.602 367.033 639.303 377.269 590.286 388.106C566.58 393.348 542.065 398.768 516.707 400.036C504.758 400.63 493.312 400.241 482.27 398.85Z" fill="url(#paint10_linear_365_2850)"/>
<path d="M454.533 413.185C444.657 411.94 435.077 409.716 425.702 406.504C411.166 401.525 397.7 392.44 384.534 378.734C373.675 367.428 363.299 353.348 351.883 334.426C334.483 305.589 318.919 273.067 303.868 241.615C286.085 204.457 269.289 169.362 251.906 145.787C216.847 98.236 166.845 83.4453 105.121 69.0497L105.195 68.7284C133.928 75.4286 161.775 82.3797 186.602 93.6649C199.949 99.7306 211.504 106.588 221.929 114.626C233.481 123.533 243.374 133.661 252.17 145.592C269.571 169.193 286.373 204.302 304.164 241.473C319.212 272.917 334.772 305.432 352.164 334.257C368.701 361.667 392.018 394.616 425.805 406.191C480.531 424.941 530.615 406.769 579.053 389.194C605.23 379.695 629.955 370.723 654.186 368.107C667.183 366.702 678.896 367.252 689.992 369.789C702.374 372.62 713.742 377.843 724.744 385.76C727.916 388.043 731.068 390.34 734.118 392.561C776.306 423.297 809.627 447.575 861.497 415.219C873.839 407.455 886.468 397.661 900.11 385.278C912.754 373.771 925.014 361.245 936.868 349.134C963.719 321.7 991.483 293.329 1025.29 275.315C1034.33 270.534 1043.45 267.336 1052.39 265.81C1060.7 264.391 1069.12 264.37 1077.43 265.743C1091.86 268.127 1106.41 274.687 1121.92 285.799C1139.95 298.711 1156.23 315.567 1170.59 330.442L1171.73 331.621C1183.91 344.229 1195.73 357.285 1208.25 371.107C1227.73 392.608 1247.87 414.841 1269.73 435.599C1296.37 460.888 1320.35 479.574 1345.19 494.406C1391.01 521.611 1440.85 533.617 1488.77 539.656C1511.08 542.467 1532.96 543.984 1553.84 545.143C1566.97 545.872 1580.28 546.276 1593.14 546.668C1597.91 546.812 1602.84 546.963 1607.68 547.127L1607.67 547.458C1602.82 547.295 1597.9 547.144 1593.13 546.999C1580.26 546.607 1566.96 546.2 1553.82 545.473C1520.52 543.628 1484.71 540.887 1448.5 533.402C1408.98 525.233 1375.13 512.572 1345.02 494.69C1320.15 479.846 1296.16 461.146 1269.5 435.839C1247.63 415.074 1227.49 392.836 1208.01 371.329C1195.49 357.508 1183.67 344.454 1171.49 331.851L1170.35 330.672C1156 315.808 1139.73 298.962 1121.73 286.069C1088.11 261.989 1057.51 258.667 1025.44 275.613C991.683 293.603 963.938 321.953 937.105 349.369C925.248 361.485 912.986 374.014 900.334 385.528C886.677 397.922 874.032 407.728 861.673 415.504C837.791 430.401 816.243 434.279 793.86 427.704C773.632 421.763 754.344 407.711 733.924 392.833C730.876 390.613 727.724 388.316 724.552 386.032C679.029 353.276 630.522 370.877 579.166 389.512C555.308 398.169 530.637 407.121 505.099 411.552C487.25 414.644 470.507 415.198 454.533 413.185Z" fill="url(#paint11_linear_365_2850)"/>
<path d="M430.907 429.397C425.033 428.657 419.234 427.511 413.446 425.949C398.631 421.956 385.188 413.485 372.35 400.053C361.374 388.568 351.012 373.586 340.676 354.247C321.858 319.039 306.922 277.283 292.478 236.906C279.898 201.735 268.014 168.514 255.201 145.067C225.696 91.0684 178.644 71.497 112.293 57.4192L112.35 57.1459C138.603 62.7147 168.949 70.3184 194.98 84.4694C207.774 91.4258 218.73 99.4345 228.472 108.953C239.025 119.265 247.849 131.033 255.442 144.931C268.266 168.397 280.151 201.628 292.736 236.808C307.177 277.178 322.108 318.922 340.917 354.113C363.068 395.558 386.137 418.299 413.514 425.677C468.986 440.628 519.612 415.426 568.573 391.054C595.845 377.478 621.603 364.656 646.829 359.57C660.359 356.841 672.553 356.58 684.107 358.769C696.999 361.212 708.84 366.627 720.308 375.33C725.91 379.581 731.369 383.902 736.649 388.082C774.607 418.135 807.389 444.089 857.597 414.528C870.258 407.039 883.109 397.49 896.886 385.338C910.001 373.753 922.649 361.01 934.878 348.686C961.605 321.756 989.241 293.908 1023.25 276.744C1032.51 272.093 1041.81 269.167 1050.91 268.046C1059.35 267.006 1067.88 267.492 1076.26 269.49C1090.88 272.979 1105.4 281.006 1120.65 294.033C1138.77 309.521 1154.63 329.191 1168.61 346.543C1177.44 357.433 1186.39 368.922 1195.04 380.036C1215.97 406.924 1237.61 434.729 1261.89 459.83C1286.95 485.624 1311.39 505.223 1336.58 519.742C1405.44 559.314 1484.43 560.012 1553.07 557.559C1568.53 557.007 1584.18 556.095 1599.32 555.212C1602.82 555.007 1606.32 554.805 1609.82 554.605L1609.83 554.883C1606.34 555.083 1602.84 555.285 1599.34 555.49C1584.2 556.373 1568.54 557.285 1553.08 557.836C1521.01 558.983 1483.38 559.499 1446.32 554.831C1445.23 554.693 1444.14 554.551 1443.05 554.405C1402.01 548.883 1367.13 537.625 1336.44 519.983C1311.22 505.449 1286.77 485.836 1261.69 460.024C1237.4 434.912 1215.75 407.102 1194.82 380.207C1186.17 369.095 1177.23 357.606 1168.4 346.718C1154.42 329.374 1138.58 309.717 1120.47 294.245C1087.27 265.88 1056.41 260.397 1023.37 276.993C989.408 294.136 961.788 321.966 935.079 348.883C922.847 361.208 910.197 373.956 897.074 385.547C883.282 397.712 870.418 407.269 857.742 414.77C834.668 428.355 813.968 431.304 792.599 424.045C773.382 417.518 755.456 403.327 736.48 388.3C731.202 384.123 725.746 379.802 720.146 375.552C672.686 339.539 622.177 364.683 568.701 391.303C544.59 403.306 519.657 415.714 493.829 423.245C479.871 427.313 466.966 429.599 454.374 430.229C446.333 430.634 438.558 430.361 430.907 429.397Z" fill="url(#paint12_linear_365_2850)"/>
<path d="M409.493 446.742C406.718 446.392 403.951 445.943 401.186 445.394C371.937 439.582 347.726 414.623 327.164 369.091C309.226 329.366 296.349 279.014 284.988 234.588C276.236 200.366 267.969 168.038 258.499 144.351C232.716 79.8576 184.268 58.3063 119.461 45.787L119.505 45.5645C156.487 52.709 182.356 61.881 203.39 75.3087C228.462 91.314 246.557 113.871 258.71 144.268C268.185 167.97 276.454 200.302 285.207 234.534C296.565 278.949 309.441 329.29 327.37 368.999C347.898 414.458 372.056 439.376 401.23 445.171C457.562 456.365 508.871 424.242 558.494 393.175C586.797 375.455 613.53 358.716 639.686 351.12C653.711 347.046 666.352 345.954 678.335 347.784C691.699 349.824 703.979 355.427 715.876 364.911C723.356 370.874 730.521 377.071 737.45 383.065C773.474 414.222 804.585 441.128 853.696 413.849C883.656 397.207 908.629 372.387 932.781 348.385C946.103 335.145 959.877 321.456 974.314 309.319C990.504 295.706 1005.84 285.524 1021.21 278.187C1036.64 270.817 1052.02 268.476 1066.9 271.222C1080.02 273.647 1092.73 279.822 1105.75 290.102C1129.62 308.946 1149.51 338.074 1165.49 361.478C1171.59 370.4 1177.76 379.649 1183.72 388.591C1223.48 448.202 1264.6 509.845 1327.96 545.093C1356.56 561 1387.12 569.494 1418.13 573.401C1463.48 579.116 1509.77 575.031 1552.31 569.989C1571.98 567.658 1591.93 564.881 1611.23 562.195L1611.97 562.092L1612 562.317L1611.26 562.42C1591.96 565.106 1572.01 567.883 1552.33 570.213C1517.92 574.293 1477.38 578.099 1437.58 575.41C1395.01 572.534 1359.12 562.682 1327.85 545.289C1264.44 510.015 1223.31 448.349 1183.53 388.716C1177.57 379.773 1171.4 370.528 1165.31 361.606C1149.33 338.214 1129.45 309.103 1105.61 290.281C1077.92 268.417 1050.35 264.527 1021.31 278.391C987.097 294.725 959.567 322.088 932.943 348.547C908.781 372.559 883.797 397.391 853.81 414.048C836.292 423.778 821.056 426.637 807.08 424.877C781.763 421.689 760.558 403.345 737.307 383.236C730.379 377.245 723.215 371.048 715.74 365.088C693.268 347.175 669.125 342.805 639.754 351.336C613.629 358.925 586.908 375.654 558.621 393.364C534.19 408.659 508.926 424.477 482.738 435.058C468.588 440.776 455.499 444.452 442.724 446.295C431.25 447.953 420.306 448.104 409.493 446.742Z" fill="url(#paint13_linear_365_2850)"/>
<defs>
<linearGradient id="paint0_linear_365_2850" x1="110.8" y1="244.063" x2="1263.04" y2="350.967" gradientUnits="userSpaceOnUse">
<stop stop-color="#FBB348"/>
<stop offset="0.5" stop-color="#FED290"/>
<stop offset="1" stop-color="#FFA51E"/>
</linearGradient>
<linearGradient id="paint1_linear_365_2850" x1="110.227" y1="250.235" x2="1262.47" y2="357.139" gradientUnits="userSpaceOnUse">
<stop stop-color="#FBB348"/>
<stop offset="0.5" stop-color="#FFD597"/>
<stop offset="1" stop-color="#FEA724"/>
</linearGradient>
<linearGradient id="paint2_linear_365_2850" x1="109.694" y1="255.985" x2="1261.94" y2="362.889" gradientUnits="userSpaceOnUse">
<stop stop-color="#FBB348"/>
<stop offset="0.5" stop-color="#FECD84"/>
<stop offset="1" stop-color="#FFAA29"/>
</linearGradient>
<linearGradient id="paint3_linear_365_2850" x1="109.22" y1="261.086" x2="1261.46" y2="367.99" gradientUnits="userSpaceOnUse">
<stop stop-color="#FBB348"/>
<stop offset="0.5" stop-color="#FBCA81"/>
<stop offset="1" stop-color="#FEA826"/>
</linearGradient>
<linearGradient id="paint4_linear_365_2850" x1="108.824" y1="265.358" x2="1261.07" y2="372.262" gradientUnits="userSpaceOnUse">
<stop stop-color="#FBB348"/>
<stop offset="0.5" stop-color="#FFCF86"/>
<stop offset="1" stop-color="#FFA51E"/>
</linearGradient>
<linearGradient id="paint5_linear_365_2850" x1="108.649" y1="267.24" x2="1260.89" y2="374.144" gradientUnits="userSpaceOnUse">
<stop stop-color="#FBB348"/>
<stop offset="0.5" stop-color="#FFD392"/>
<stop offset="1" stop-color="#FFA620"/>
</linearGradient>
<linearGradient id="paint6_linear_365_2850" x1="109.323" y1="259.982" x2="1261.57" y2="366.886" gradientUnits="userSpaceOnUse">
<stop stop-color="#FBB348"/>
<stop offset="0.5" stop-color="#FFCB7D"/>
<stop offset="1" stop-color="#FFA927"/>
</linearGradient>
<linearGradient id="paint7_linear_365_2850" x1="110.175" y1="250.799" x2="1262.42" y2="357.703" gradientUnits="userSpaceOnUse">
<stop stop-color="#FBB348"/>
<stop offset="0.5" stop-color="#FFCF86"/>
<stop offset="1" stop-color="#FFA51F"/>
</linearGradient>
<linearGradient id="paint8_linear_365_2850" x1="110.582" y1="246.401" x2="1262.83" y2="353.305" gradientUnits="userSpaceOnUse">
<stop stop-color="#FBB348"/>
<stop offset="0.5" stop-color="#FFCF88"/>
<stop offset="1" stop-color="#FFA724"/>
</linearGradient>
<linearGradient id="paint9_linear_365_2850" x1="110.811" y1="243.921" x2="1263.05" y2="350.825" gradientUnits="userSpaceOnUse">
<stop stop-color="#FBB348"/>
<stop offset="0.5" stop-color="#FFD79B"/>
<stop offset="1" stop-color="#FFA217"/>
</linearGradient>
<linearGradient id="paint10_linear_365_2850" x1="111.043" y1="241.438" x2="1263.29" y2="348.342" gradientUnits="userSpaceOnUse">
<stop stop-color="#FBB348"/>
<stop offset="0.5" stop-color="#FCD499"/>
<stop offset="1" stop-color="#FFA724"/>
</linearGradient>
<linearGradient id="paint11_linear_365_2850" x1="111.092" y1="240.9" x2="1263.34" y2="347.804" gradientUnits="userSpaceOnUse">
<stop stop-color="#FBB348"/>
<stop offset="0.5" stop-color="#FFCC80"/>
<stop offset="1" stop-color="#FFA621"/>
</linearGradient>
<linearGradient id="paint12_linear_365_2850" x1="110.797" y1="244.078" x2="1263.04" y2="350.982" gradientUnits="userSpaceOnUse">
<stop stop-color="#FBB348"/>
<stop offset="0.5" stop-color="#FFD18C"/>
<stop offset="1" stop-color="#FEA724"/>
</linearGradient>
<linearGradient id="paint13_linear_365_2850" x1="110.382" y1="248.556" x2="1262.63" y2="355.46" gradientUnits="userSpaceOnUse">
<stop stop-color="#FBB348"/>
<stop offset="0.5" stop-color="#FBCD89"/>
<stop offset="1" stop-color="#FEA51F"/>
</linearGradient>
</defs>
</svg>
