<svg version="1.2" xmlns="http://www.w3.org/2000/svg" viewBox="0 0 1222 896" width="1222" height="896">
	<title>logo</title>
	<style>
		.s0 { fill: #952c2f } 
		.s1 { fill: #ffffff } 
		.s2 { fill: #1f252b } 
		.s3 { fill: #deded4 } 
		.s4 { fill: #1f252b;stroke: #ffffff;stroke-miterlimit:10;stroke-width: 3.2 } 
		.s5 { fill: #e5e3d8 } 
	</style>
	<path class="s0" d="m1221.5 1179.9h-1221.5v153.1h1221.5z"/>
	<path fill-rule="evenodd" class="s1" d="m211.9 1208.2l-23.9 57.7-24.2-66.7-25.3 66.6-22.5-57.6h-20.4l43 107.6 24.8-65.4 23.7 65.4 45.2-107.6z"/>
	<path fill-rule="evenodd" class="s1" d="m280.1 1206.4c13.8 0 25.9 5 35.7 14.9 9.9 9.9 14.9 21.8 14.9 35.7 0 14-5 26-15 35.7-9.9 9.7-22.2 14.7-36.3 14.7-12.5 0-23.9-4.4-33.8-13.1-11-9.6-16.5-22.3-16.5-37.8 0-13.6 5-25.5 15-35.3 10-9.8 22.1-14.8 36.1-14.8zm-0.6 83.1c9.2 0 16.7-3.1 23-9.4 6.2-6.4 9.3-13.9 9.3-23.2 0-9.3-3-16.8-9.2-23.1-6.2-6.3-13.6-9.4-22.7-9.4-9.1 0-16.5 3.1-22.7 9.4-6.3 6.2-9.3 13.3-9.3 22.9 0 9.7 3.1 17.4 9.6 23.5 6.4 6.3 13.7 9.3 22 9.3z"/>
	<path fill-rule="evenodd" class="s1" d="m381.3 1265.1l29.5 40.6h-23.1l-25.4-36.4v36.4h-18.8v-97.5h18.8c12.8 0 22.2 2.5 28.1 7.4 6.6 5.6 9.9 13 9.9 22.2 0 7-2.1 13.2-6.2 18.4-3.4 4.2-7.7 7.2-12.8 8.9zm0.5-27.1q0 0 0 0 0 0 0 0zm0 0c0-5.1-1.7-11.8-16.9-11.8h-2.6v24.6h2.1c15.6 0 17.4-7.3 17.4-12.8z"/>
	<path fill-rule="evenodd" class="s1" d="m436.3 1208.2h-18.8v97.5h46.1v-18h-27.3z"/>
	<path fill-rule="evenodd" class="s1" d="m516.7 1211.1c6.1 1.9 11.7 5.1 16.7 9.7 10 9.1 15.1 21.2 15.1 36.1 0 14.9-5.3 27.2-15.8 36.4-5.2 4.6-10.8 7.9-16.6 9.7-5.3 1.8-12.7 2.7-22.5 2.7h-21.6v-97.5h21.9c9.5 0 17.2 0.9 22.8 2.9zm-7 74.7c3.8-1.2 7.3-3.3 10.4-6.1 6.4-5.9 9.5-13.2 9.5-22.8 0-9.5-3.1-17.1-9.4-23-5.6-5.1-14.2-7.8-25.5-7.8h-3.9v61.6h3.9c6.1 0 11.1-0.6 15-1.9z"/>
	<path fill-rule="evenodd" class="s1" d="m635.7 1245.9l-9.3-3.7c-8.6-3.6-8.6-7.5-8.6-8.8 0-2.5 1-4.6 3-6.3 2.2-1.8 4.8-2.7 8.1-2.7q4.1 0 6.6 1.6c1.1 0.6 2.8 2.2 5.2 6.3l1.2 2.1 15.5-9.2-1.2-2c-6.5-11.2-15.6-16.8-27.1-16.8-8.5 0-15.7 2.6-21.5 7.7-5.8 5.1-8.8 11.6-8.8 19.2 0 11.3 6.9 20 20.5 25.8l8.9 3.7q3.4 1.4 5.7 2.9c1.4 1 2.7 2 3.6 3.1 0.8 1 1.4 2.1 1.9 3.4q0.6 1.8 0.6 4.1c0 3.9-1.2 7-3.6 9.5-2.5 2.4-5.5 3.6-9.2 3.6-4.8 0-8.3-1.6-10.7-5.1-0.9-1.1-2.2-3.8-2.9-10l-0.3-2.7-19 4.2 0.4 2.2c1.3 9.2 4.8 16.4 10.4 21.6 5.7 5.1 12.9 7.7 21.5 7.7 9.1 0 16.9-3 23-9.1 6.2-6 9.3-13.6 9.3-22.8 0-6.9-1.9-12.8-5.8-17.6-3.7-4.7-9.6-8.7-17.4-11.9z"/>
	<path fill-rule="evenodd" class="s1" d="m717.7 1206.3c-15.9 0-29 6-39.1 17.9-8.1 9.6-12.2 20.8-12.2 33.1 0 13.8 4.9 25.7 14.7 35.5 9.8 9.7 21.7 14.5 35.6 14.5 9.2 0 18-2.3 26.4-7l1.2-0.7v-23.5l-4 3.4c-2.2 1.8-4.3 3.4-6.2 4.7q-3 1.9-5.7 3.1c-3.1 1.4-7 2.2-11.6 2.2-8.9 0-16.2-3.1-22.4-9.4-6.1-6.3-9.1-13.7-9.1-22.9 0-9.1 3-16.9 9.2-23.3 6.1-6.4 13.4-9.5 22.3-9.5 8 0 16 3.2 23.6 9.6l3.9 3.3v-23.1l-1.2-0.7c-8.1-4.7-16.6-7.2-25.3-7.2z"/>
	<path fill-rule="evenodd" class="s1" d="m813.7 1244.4h-35.2v-36.2h-18.8v97.5h18.8v-43.3h35.2v43.3h18.7v-97.5h-18.7z"/>
	<path fill-rule="evenodd" class="s1" d="m896.3 1206.4c13.8 0 25.8 5 35.7 14.9 9.9 9.9 14.9 21.8 14.9 35.7 0 14-5 26-15 35.7-10 9.7-22.2 14.7-36.3 14.7-12.5 0-23.9-4.4-33.8-13.1-11-9.6-16.6-22.3-16.6-37.8 0-13.6 5.1-25.5 15.1-35.3 9.9-9.8 22-14.8 36-14.8zm-0.5 83.1c9.1 0 16.6-3.1 22.9-9.4 6.3-6.4 9.3-13.9 9.3-23.2 0-9.3-3-16.8-9.2-23.1-6.2-6.3-13.6-9.4-22.7-9.4-9.1 0-16.5 3.1-22.7 9.4-6.3 6.2-9.3 13.3-9.3 22.9 0 9.7 3.1 17.4 9.6 23.5 6.4 6.3 13.7 9.3 22.1 9.3z"/>
	<path fill-rule="evenodd" class="s1" d="m1006.2 1206.4c13.8 0 25.8 5 35.7 14.9 9.9 9.9 14.9 21.8 14.9 35.7 0 14-5 26-15 35.7-10 9.7-22.2 14.7-36.3 14.7-12.5 0-23.9-4.4-33.8-13.1-11-9.6-16.6-22.3-16.6-37.8 0-13.6 5.1-25.5 15.1-35.3 9.9-9.8 22-14.8 36-14.8zm-0.5 83.1c9.1 0 16.6-3.1 22.9-9.4 6.3-6.4 9.3-13.9 9.3-23.2 0-9.3-3-16.8-9.2-23.1-6.2-6.3-13.6-9.4-22.7-9.4-9.1 0-16.5 3.1-22.7 9.4-6.3 6.2-9.3 13.3-9.3 22.9 0 9.7 3.1 17.4 9.6 23.5 6.4 6.3 13.7 9.3 22 9.3z"/>
	<path fill-rule="evenodd" class="s1" d="m1088.4 1287.7v-79.5h-18.8v97.5h46v-18z"/>
	<path fill-rule="evenodd" class="s2" d="m76.6 976.6v65.9h-3.9q-0.3-10.3-6.4-32.8-1.8-7.4-4.3-14.2-2.5-6.8-7.5-12.5-5.1-5.6-12.4-5.6-12 0-12 14.9 0 9.7 5.8 20.9 6.4 12.4 19.4 33.4 7.8 12.1 11.3 17.6 3.4 5.6 7.4 13.2c2.6 5.1 4.7 10.3 6.4 15.6q2.4 7.9 2.4 15.6 0 14.9-8.9 26.6-8.9 11.7-27 11.8-13.8 0-22.2-10.4l-14.2 8.3h-4.3v-71.1h4.3l0.3 2.3q0.8 11 4 26.5c2.2 10.3 5.6 19.7 10.4 28.3q7.2 12.8 18.5 12.8 7 0 10.6-5.5 3.6-5.5 3.6-11.4 0-8-1.8-15.3-1.9-7.4-5.1-14.3-3.3-6.9-6.1-11.7-2.8-4.9-10.2-17.2-9.7-15.6-18.5-31.1-8.7-15.9-8.7-27.4 0-3.4 0.4-5.1c0.6-4.9 2.4-9.7 5.3-14.3 2.8-4.6 6.7-8.4 11.7-11.4q7.3-4.4 16.9-4.4c6.3 0 11.6 2.7 16.5 8.1l1.5 1.8 13-7.9h3.8z"/>
	<path fill-rule="evenodd" class="s2" d="m200.9 979.4h-9.7v162.7h9.7v2.8h-48.5v-2.8h9.7v-157.2l-24.5 160h-12.3l-22.6-160v135.8q0 10.6 2.1 16 2.1 5.4 8.9 5.4h1.9v2.8h-28.7v-2.8q7.1 0 9.4-4.3c1.4-2.9 2.2-6.8 2.2-11.6v-146.8h-9.7v-2.8h41.1l14.5 97.4 15.3-97.4h41.3v2.8z"/>
	<path fill-rule="evenodd" class="s2" d="m262.4 976.6l22.6 165.5h9.7v2.8h-50.7v-2.8h12l-4-32.2h-26.8l-2.5 16.1q-0.7 3.9-0.7 6 0 10.1 9.7 10.1h1.9v2.8h-27.7v-2.8h1.9q4.9 0 6.7-2.9 1.9-3 3-8.2l0.9-5.2 25.6-149.2h18.3zm-10.6 130.5l-11.3-87.3-14.8 87.3z"/>
	<path fill-rule="evenodd" class="s2" d="m354.8 976.6v2.8h-13.2v162.7q12.7 0 19.1-2.9 6.5-2.8 10-12 7.8-18.8 10-46.1l0.3-4.1h3.6v67.9h-81.8v-2.8h9.8v-162.7h-9.8v-2.8z"/>
	<path fill-rule="evenodd" class="s2" d="m441.3 976.6v2.8h-13.2v162.7q12.7 0 19.2-2.9 6.4-2.8 9.9-12 7.8-18.8 10-46.1l0.3-4.1h3.6v67.9h-81.7v-2.8h9.7v-162.7h-9.7v-2.8h52z"/>
	<path fill-rule="evenodd" class="s2" d="m524.1 976.6h48.5v2.8h-9.7l13.5 115.8 15.6-100.2-2-15.6h-9.7v-2.8h48.8v2.8h-10l13.9 117.1 13.2-90.9c1.4-8 2-14 2-17.9q0-3.7-3.1-5.9-3.1-2.2-7.9-2.4v-2.8h26.8v2.8h-1.9q-5.6 0-7.5 4.6-1.5 3.3-3.2 15.6l-21.6 145.3h-19.1l-16.8-136-20.7 136h-18l-21.3-165.5h-9.7v-2.8z"/>
	<path fill-rule="evenodd" class="s2" d="m748.1 1063.4q0 30.3-4.6 49.7-2.7 12.5-11.9 23.2-9.2 10.6-23.3 10.6c-9.4 0-17-3.5-23.1-10.5q-9-10.5-12.1-23.3-4.5-19-4.5-49.7-0.1-22.3 1.5-38.5 1.5-16.2 7.2-29.1 10-21.2 31-21.2 16.9 0 25.8 12.2 8.9 12.3 11.4 28.7 2.5 16.5 2.5 35.3v12.6zm-49.1-66.3v127.4c0 0.5-0.1 1.5-0.2 3.1q-0.1 2.3-0.1 3.7c0 8.4 3.2 12.7 9.7 12.9q5.6 0 7.4-2.8 2.3-2.6 2.3-8.6 0-1.5-0.2-4.3-0.1-2.8-0.1-4v-127.4q0-0.9 0.1-3.5 0.2-2.6 0.2-4.1 0-6.7-2.3-9.3c-1.1-1.9-3.6-2.8-7.4-2.8q-9.7 0.3-9.7 12.9 0 1.3 0.1 3.6c0.1 1.6 0.2 2.7 0.2 3.2z"/>
	<path fill-rule="evenodd" class="s2" d="m757.8 976.6h40l24.9 111.5v-92.8q-0.1-0.9 0.1-2.8 0.2-2 0.2-3.2 0-9.9-8.7-9.9h-2.3v-2.8h26.5v2.8h-2.3q-5.9 0-7.6 4.2c-1.2 2.8-1.7 6.8-1.7 12.2v149.1h-20.7l-34.6-153.9v130.9q0 1.2-0.1 3.6-0.2 2.4-0.2 3.5 0 6 2.6 9.6 2.6 3.5 11.3 3.5v2.8h-29.8v-2.8q7.6-0.2 9.8-5.4 2.2-5.1 2.2-15.2v-142.1h-9.7v-2.8z"/>
	<path fill-rule="evenodd" class="s2" d="m844.6 1144.9v-2.7h9.7v-162.8h-9.7v-2.7h38.7c12.2 0 21.4 2.1 27.5 6.3q13.5 9.5 17.4 27.9 3.9 18.3 3.9 42.7v7.3q0 21.8-1.7 36.5c-1.1 9.8-3.9 19.2-8.3 28.1q-6.9 14.6-22.6 18.2-5.2 1.2-16.2 1.2zm38.7-165.5v162.8c6.9-0.1 11.6-0.7 14.4-2q4.1-1.9 4.1-9.1v-140.3c0-4.9-1.4-8-4.1-9.4q-4.1-2-14.4-2z"/>
	<path fill-rule="evenodd" class="s2" d="m1021.7 976.6v64.1h-3.9q-0.4-15.3-5.5-35.3c-4.5-17.3-13.5-26-26.8-26h-5.2v77.4q7.6 0 11.7-6 5.7-9.3 7.7-30.3l0.6-5h3.6v86.8h-3.6q-0.9-12.4-2.3-20.3c-1-5.4-2.9-10.6-5.7-15.6q-3.7-6.5-12-6.5v82.2q19 0 26.9-18.1 7.8-16.2 10.6-49.3h3.9v70.2h-80.1v-2.8h9.7v-162.7h-9.7v-2.8h80.1z"/>
	<path fill-rule="evenodd" class="s2" d="m1032.4 976.6h38.8q20.7 0 33.6 10.9 14.9 12.3 14.9 34.8-0.7 8.8-5.7 17-4.9 8.1-13.4 13.5c-4.4 2.8-10 5.1-16.8 7.1q16.8 2.2 24.2 10.6 8.4 9.7 8.4 30v34.8q0 4.1 3.2 4.1 5.5 0 7.9-6.8 2.5-6.8 2.5-12.4 0-2-0.3-3h4.2q0 27.6-23 29.8-12.9 0-17.1-6.8-4.2-6.7-4.2-17.2v-47.2q0-9.2-3.4-11.9-3.5-2.8-15-2.7v80.9h9.7v2.8h-48.5v-2.8h9.7v-162.4h-9.7zm38.8 3v78.7h5.5q8.5 0 10.7-4.4 2.2-4.5 2.2-13v-45.9q0-6.1-1.4-9.4-1.5-3.3-5.4-4.7c-2.6-0.9-6.5-1.3-11.6-1.3z"/>
	<path fill-rule="evenodd" class="s2" d="m1207.8 976.6v65.9h-3.9q-0.3-10.3-6.4-32.8-1.8-7.4-4.3-14.2-2.5-6.8-7.6-12.5-5-5.6-12.3-5.6-12 0-12 14.9 0 9.7 5.8 20.9 6.4 12.4 19.4 33.4 7.8 12.1 11.3 17.6 3.4 5.6 7.3 13.2 4 7.7 6.4 15.6 2.5 7.9 2.5 15.6 0 14.9-8.9 26.6-8.9 11.7-27 11.8-13.8 0-22.3-10.4l-14.2 8.3h-4.3v-71.1h4.3l0.3 2.3q0.8 11 4.1 26.5c2.1 10.3 5.6 19.7 10.4 28.3q7.2 12.8 18.4 12.8 7 0 10.7-5.5 3.6-5.5 3.6-11.4 0-8-1.9-15.3-1.8-7.4-5.1-14.3-3.3-6.9-6-11.7-2.8-4.9-10.3-17.2-9.7-15.6-18.4-31.1-8.7-15.9-8.7-27.4c0-2.3 0.1-3.9 0.3-5.1 0.7-4.9 2.5-9.7 5.3-14.3 2.9-4.6 6.8-8.4 11.7-11.4q7.4-4.4 16.9-4.4c6.4 0 11.6 2.7 16.5 8.1l1.6 1.8 12.9-7.9h3.9z"/>
	<path fill-rule="evenodd" class="s2" d="m262.6 197.3c184-8.5 343.7-166.2 347.9-170.4 0 0 0.2-0.2 0.2-0.2l0.1 0.2c0 0 161.6 162 348 170.6 0 0 39.6 233-69 432.5h21.2c104.6-201.8 67.9-432.1 67.3-435.6l-2.6-15.3-15.9-0.8c-176.3-8.1-333.3-163.2-334.9-164.7l-15.1-13.6-13.4 13.4c-1.5 1.6-158.5 156.6-334.8 164.8l-15.9 0.7-2.6 15.3c-0.6 3.5-37.5 234 67.1 435.8h21.2c-108.6-199.5-68.8-432.7-68.8-432.7z"/>
	<path fill-rule="evenodd" class="s3" d="m958.9 197.5c-186.5-8.7-348.1-170.6-348.1-170.6l-0.1-0.2c0 0-0.1 0.2-0.2 0.2v603.1h279.3c108.7-199.5 69.1-432.5 69.1-432.5z"/>
	<path fill-rule="evenodd" class="s0" d="m262.6 197.3c0 0-39.8 233.2 68.8 432.7h279v-603.1c-4.1 4.2-163.8 161.9-347.8 170.4z"/>
	<path fill-rule="evenodd" class="s2" d="m610.2 408.1v0.3c0 0 0.1 0 0.2 0v-0.4l-0.2 0.1z"/>
	<path fill-rule="evenodd" class="s2" d="m688.7 258.6l-0.2-0.3c20.1 23.9 23.5 54.5 23.5 54.5l9.5-0.5-6.4-88.8-10.4 1.4c0.4 9.5-5.8 11.7-11.4 11.7-4.5 0-8.7-1.6-12.5-3.8-2-1.3-4.1-2.3-6.3-3.4-0.6-0.3-1.3-0.6-1.9-0.9q-0.1-0.1-0.2-0.1c-14.1-6.6-27.6-10.6-40.1-12.8-7.6-1.2-15-1.8-22-1.8v14.3c7.2 0.2 14.6 1.1 22 2.6 22.5 4.6 44.6 14.5 56.3 27.9z"/>
	<path fill-rule="evenodd" class="s2" d="m780.9 228.1v9.8h12c7.3 0.2 18.5 7.5 15.1 21l-64.2 190c0 0 13.7-76-94.7-106.5 0 0-5.4-1.5-10.7-2.7-2-0.5-6.1-1.4-6.1-1.4-1.7-0.2-3.4-0.6-5.2-1-7-1.6-16.6-4-16.6-4v68.3c13.3 4.5 22.1 6.3 22.1 6.3 0 0 97.8 25.1 87.6 82.3l-15.6 53.2 20.8-0.9 90.8-269.2c0 0 12.5-36 36.4-35.4h12.6v-9.8h-84.3z"/>
	<path fill-rule="evenodd" class="s2" d="m650.5 228.5c0 0 0.1 0 0.2 0.1-0.1 0-0.2-0.1-0.2-0.1z"/>
	<path fill-rule="evenodd" class="s2" d="m652.5 229.4c-0.6-0.3-1.3-0.6-1.9-0.9 0.6 0.3 1.3 0.7 1.9 1v-0.1z"/>
	<path class="s4" d="m976 636.6h-730v132.5h730z"/>
	<path fill-rule="evenodd" class="s2" d="m323.3 807.6l0.6-31.1h-56.6z"/>
	<path fill-rule="evenodd" class="s2" d="m307.3 810.9l-69-41 0.1-15.1v-69.8l-111.5 0.6 30.9 62.3-33.3 63z"/>
	<path fill-rule="evenodd" class="s4" d="m323.3 807.6l0.6-31.1h-56.6z"/>
	<path fill-rule="evenodd" class="s4" d="m307.3 810.9l-69-41 0.1-15.1v-69.8l-111.5 0.6 30.9 62.3-33.3 63z"/>
	<path fill-rule="evenodd" class="s2" d="m898.6 807.6l-0.7-31.1h56.6z"/>
	<path fill-rule="evenodd" class="s2" d="m914.6 810.9l68.9-41-0.1-15.1v-69.8l111.5 0.6-30.9 62.4 33.3 62.9z"/>
	<path fill-rule="evenodd" class="s4" d="m898.6 807.6l-0.7-31.1h56.6z"/>
	<path fill-rule="evenodd" class="s4" d="m914.6 810.9l68.9-41-0.1-15.1v-69.8l111.5 0.6-30.9 62.4 33.3 62.9z"/>
	<path fill-rule="evenodd" class="s1" d="m441.5 723.9v-52h32.3v8.2h-22v13h21v8.1h-21v14.4h22v8.3z"/>
	<path fill-rule="evenodd" class="s1" d="m516.2 710.4c0 2.4-0.5 4.6-1.4 6.3-1 1.8-2.2 3.3-3.9 4.5-1.7 1.2-3.7 2.1-6 2.6-2.3 0.6-4.8 0.9-7.5 0.9q-3.7 0-7.1-0.4-3.3-0.4-6.7-1.4v-8.3q1.6 0.5 3.4 1 1.8 0.5 3.6 0.8 1.8 0.4 3.5 0.6 1.8 0.2 3.4 0.2 2.5 0 4.2-0.4c1.2-0.3 2.1-0.6 2.9-1.1 0.7-0.5 1.2-1.1 1.5-1.8 0.4-0.6 0.6-1.3 0.6-2.1q0-1.7-1-2.8-1-1.1-2.6-2-1.6-0.8-3.6-1.5-2-0.7-4.1-1.5-2.1-0.8-4.2-1.8-2-0.9-3.6-2.4-1.6-1.5-2.5-3.5c-0.7-1.4-1-3-1-5 0-1.7 0.3-3.4 1-5q1-2.3 3.1-4.1c1.4-1.2 3.2-2.1 5.4-2.8q3.3-1 8-1 1.4 0 2.9 0.1c1 0.1 2 0.2 3 0.3q1.5 0.2 2.8 0.5c0.9 0.2 1.7 0.3 2.5 0.5v7.7q-1.1-0.4-2.5-0.7c-0.9-0.2-1.8-0.5-2.8-0.6-0.9-0.2-1.9-0.4-2.8-0.4q-1.5-0.2-2.8-0.2c-1.5 0-2.8 0.1-3.9 0.4-1 0.2-1.9 0.6-2.6 1q-1 0.6-1.5 1.5-0.5 0.9-0.5 2.1c0 0.9 0.4 1.7 1 2.4 0.7 0.7 1.5 1.3 2.6 1.8q1.6 0.8 3.7 1.5 2 0.7 4.1 1.5c1.5 0.6 2.9 1.2 4.2 1.9q2.1 1 3.7 2.5 1.6 1.5 2.6 3.5c0.6 1.3 0.9 2.9 0.9 4.7z"/>
	<path fill-rule="evenodd" class="s1" d="m544.3 686.1v37.8h-9v-37.8h-12.6v-7h34.2v7z"/>
	<path fill-rule="evenodd" class="s1" d="m582.6 709.3q1.8 0 3.2 0.6 1.5 0.6 2.6 1.6 1.1 1.1 1.7 2.5c0.4 1 0.6 2 0.6 3.1 0 1.1-0.2 2.1-0.6 3q-0.6 1.5-1.7 2.5-1.1 1-2.6 1.7-1.4 0.6-3.2 0.6c-1.1 0-2.1-0.2-3-0.6-1-0.4-1.8-1-2.5-1.7q-1.1-1.1-1.7-2.5-0.6-1.4-0.6-3c0-1.1 0.2-2.1 0.6-3.1q0.6-1.4 1.7-2.5 1-1 2.5-1.6c0.9-0.4 2-0.6 3-0.6z"/>
	<path fill-rule="evenodd" class="s1" d="m611.3 724v-7.2l12.7-12.3q3.5-3.5 5.7-6 2.1-2.5 3.3-4.5 1.2-2 1.6-3.6 0.4-1.7 0.4-3.5 0-1.5-0.5-2.8c-0.3-0.9-0.8-1.7-1.4-2.3q-1-1-2.4-1.6-1.4-0.5-3.3-0.5c-2.1 0-4.1 0.4-5.9 1.3q-2.7 1.3-5.1 3.5l-5.3-6.6q3.5-3.1 7.8-5 4.4-1.9 9.5-1.9 3.9 0 7.2 1 3.2 0.9 5.4 2.9c1.6 1.3 2.7 2.8 3.6 4.8q1.2 2.8 1.2 6.6 0 3.1-0.8 5.8-0.9 2.7-2.5 5.2c-1.1 1.7-2.5 3.4-4.1 5.1-1.6 1.7-3.4 3.5-5.5 5.4l-7.8 7.2h22.6v9h-36.4z"/>
	<path fill-rule="evenodd" class="s1" d="m696.2 697.7q0 0 0 0 0 0 0 0zm-1.5 11.4c-0.9 3.4-2.3 6.2-4.2 8.6q-2.7 3.4-6.7 5.3-4 1.8-9.1 1.8c-3 0-5.7-0.5-8.2-1.5q-3.8-1.5-6.5-4.8c-1.8-2.1-3.2-4.9-4.2-8.3q-1.5-5-1.5-12.1c0-4.2 0.4-8.1 1.4-11.4 1-3.4 2.4-6.2 4.2-8.6 1.9-2.3 4.1-4.1 6.8-5.3q4-1.8 9.1-1.8c3 0 5.7 0.5 8.2 1.5q3.7 1.5 6.4 4.7 2.7 3.2 4.2 8.3 1.6 5.1 1.6 12.2 0 6.4-1.5 11.4zm-30.3-11.3v1.5q0 0.7 0.1 1.4l20.1-14.1q-1.4-3.9-3.8-5.8-2.4-1.9-5.6-1.9-2.3 0-4.2 1.1-2 1.1-3.5 3.5-1.4 2.4-2.3 5.9c-0.6 2.3-0.8 5.2-0.8 8.4zm21.6 0.1q0-0.7 0-1.4c0-0.4-0.1-0.9-0.1-1.3l-20 14q1.4 3.9 3.8 5.8c1.5 1.2 3.4 1.9 5.5 1.9 1.5 0 3-0.4 4.3-1.2q2-1.2 3.5-3.5 1.4-2.3 2.2-5.9 0.9-3.5 0.9-8.4z"/>
	<path fill-rule="evenodd" class="s1" d="m742.4 697.7q0 0 0 0 0 0 0 0zm0-0.1q0 0 0 0zm-1.4 11.5c-1 3.4-2.4 6.2-4.2 8.6q-2.8 3.4-6.8 5.3-4 1.8-9.1 1.8-4.4 0-8.2-1.5-3.7-1.5-6.4-4.8-2.7-3.2-4.3-8.3-1.5-5-1.5-12.1c0-4.2 0.5-8.1 1.4-11.4 1-3.4 2.4-6.2 4.3-8.6 1.8-2.3 4-4.1 6.7-5.3q4.1-1.8 9.2-1.8c2.9 0 5.6 0.5 8.1 1.5q3.8 1.5 6.5 4.7 2.7 3.2 4.2 8.3 1.5 5.1 1.5 12.2 0 6.4-1.4 11.4zm-30.4-11.3v1.5q0 0.7 0.1 1.4l20.1-14.1q-1.4-3.9-3.8-5.8-2.3-1.9-5.5-1.9-2.4 0-4.3 1.1-2 1.1-3.4 3.5-1.5 2.4-2.3 5.9c-0.6 2.3-0.9 5.2-0.9 8.4zm21.7 0.1q0-0.7-0.1-1.4c0-0.4 0-0.9 0-1.3l-20 14q1.3 3.9 3.7 5.8c1.6 1.2 3.4 1.9 5.5 1.9 1.6 0 3-0.4 4.3-1.2q2-1.2 3.5-3.5 1.5-2.3 2.3-5.9 0.8-3.5 0.8-8.4z"/>
	<path fill-rule="evenodd" class="s1" d="m750 724v-7.2l12.7-12.3q3.5-3.5 5.7-6 2.2-2.5 3.3-4.5 1.2-2 1.6-3.6 0.4-1.7 0.4-3.5 0-1.5-0.5-2.8-0.5-1.4-1.4-2.3-1-1-2.4-1.6-1.4-0.5-3.3-0.5c-2.1 0-4 0.4-5.8 1.3q-2.8 1.3-5.2 3.5l-5.3-6.6c2.3-2.1 4.9-3.7 7.9-5q4.3-1.9 9.4-1.9 4 0 7.2 1 3.2 0.9 5.5 2.9c1.5 1.3 2.7 2.8 3.5 4.8q1.2 2.8 1.2 6.6 0 3.1-0.8 5.8-0.9 2.7-2.5 5.2c-1.1 1.7-2.5 3.4-4.1 5.1-1.6 1.7-3.4 3.5-5.4 5.4l-7.9 7.2h22.6v9h-36.4z"/>
	<path fill-rule="evenodd" class="s2" d="m610.6 864.5c0 0 0 0-0.1-0.1-63.5-22.9-115.9-53.4-159.1-88.8h-29.4c47.7 43 107.3 80 181.8 106.8l6.8 2.5 6.9-2.5c74.5-26.8 134-63.8 181.8-106.8h-29.4c-43.2 35.4-95.6 65.9-159.3 88.9z"/>
	<path fill-rule="evenodd" class="s3" d="m738.3 775.6h-127.8v88.8c0 0 0.1 0 0.1 0.1 63.6-23 116-53.5 159.2-88.9h-31.5z"/>
	<path fill-rule="evenodd" class="s0" d="m482.8 775.6h-31.5c43.1 35.4 95.5 65.9 159.1 88.8v-88.8z"/>
	<path fill-rule="evenodd" class="s5" d="m572.6 315.6c-16.9-14.3-24.5-37.2-17.2-58.4 3.6-10.5 9.9-17.5 17.2-22.1 9.2-5.5 22.9-7.6 37.8-7v-14.3c-12.3-0.1-23.3 1.4-32 3.1q-0.6 0.2-1.3 0.3c-11.1 2.4-17.9 5.3-17.9 5.3-41 15.4-68.3 51.8-54.2 95.4 9.6 29.6 35.9 50.6 62 64.9l-27.4 80.6-84.3-202.3c0 0-6.3-23.1 17.2-28.5 0.7-0.2 1.1-0.3 1.6-0.5h13.8v-9.7h-133v9.7h3.7c7 0 13.8 2.3 19.2 6.6 6 4.7 12.5 11.9 18.2 23l114.3 274.6 18.5-1 50.4-146.3c11.2 5.4 22.3 9.6 31.2 12.6v-68.3c-9.9-3-19.1-6.6-25.2-9.5-4.6-2.2-8.8-5-12.6-8.2z"/>
</svg>